<svg width="149" height="28" viewBox="0 0 149 28" fill="none" xmlns="http://www.w3.org/2000/svg">
<path d="M50.2007 15.208H55.7872C56.167 15.208 56.5313 15.3593 56.7998 15.6286C57.0684 15.8978 57.2192 16.2631 57.2192 16.6439C57.2192 17.0247 57.0684 17.39 56.7998 17.6592C56.5313 17.9285 56.167 18.0798 55.7872 18.0798H49.0497C48.945 18.0802 48.8439 18.1184 48.7651 18.1875L46.7334 19.9465C46.6647 20.0052 46.6156 20.0835 46.5926 20.1711C46.5696 20.2586 46.5739 20.3511 46.6049 20.4361C46.6359 20.5211 46.6921 20.5946 46.766 20.6466C46.8398 20.6987 46.9278 20.7268 47.018 20.7272H55.4489C55.5581 20.7272 55.6584 20.7416 55.7676 20.7416C56.8133 20.734 57.816 20.3231 58.5678 19.5942C59.3195 18.8652 59.7626 17.8741 59.8052 16.8264C59.8478 15.7786 59.4866 14.7547 58.7965 13.9668C58.1064 13.1789 57.1404 12.6876 56.0987 12.5947H50.0861C49.7063 12.5947 49.3421 12.4434 49.0735 12.1741C48.805 11.9048 48.6541 11.5396 48.6541 11.1588C48.6541 10.7779 48.805 10.4127 49.0735 10.1434C49.3421 9.87416 49.7063 9.72288 50.0861 9.72288H56.8093C56.9191 9.72241 57.0248 9.68153 57.1065 9.608L58.9967 7.84903C59.0618 7.78812 59.1072 7.70907 59.127 7.62207C59.1469 7.53506 59.1403 7.44408 59.1082 7.36086C59.076 7.27763 59.0197 7.20597 58.9466 7.1551C58.8735 7.10423 58.7868 7.07648 58.6978 7.07544H50.0933C49.0287 7.09783 48.0153 7.53758 47.2703 8.30041C46.5254 9.06324 46.1082 10.0884 46.1082 11.1561C46.1082 12.2237 46.5254 13.2489 47.2703 14.0117C48.0153 14.7746 49.0287 15.2143 50.0933 15.2367L50.2007 15.208Z" fill="#010101"/>
<path d="M82.7142 7.03941C82.6558 7.03964 82.5981 7.05146 82.5443 7.07418C82.4905 7.0969 82.4417 7.13008 82.4008 7.17179C82.3599 7.21351 82.3276 7.26294 82.3058 7.31723C82.284 7.37153 82.2731 7.42961 82.2738 7.48813V20.2784C82.2734 20.3963 82.3194 20.5096 82.4018 20.5937C82.4843 20.6777 82.5966 20.7257 82.7142 20.7271H92.9387C92.9995 20.7261 93.0595 20.7129 93.1152 20.6882C93.1708 20.6636 93.221 20.628 93.2626 20.5835L94.5425 19.2068C94.6023 19.1434 94.6423 19.0637 94.6574 18.9778C94.6726 18.8918 94.6623 18.8032 94.6278 18.723C94.5934 18.6429 94.5362 18.5746 94.4635 18.5266C94.3907 18.4786 94.3056 18.453 94.2185 18.453H85.2936C85.2352 18.4528 85.1775 18.441 85.1237 18.4182C85.0699 18.3955 85.0211 18.3623 84.9802 18.3206C84.9392 18.2789 84.9069 18.2295 84.8852 18.1752C84.8634 18.1209 84.8525 18.0628 84.8532 18.0043V7.48094C84.8537 7.36303 84.8077 7.24971 84.7252 7.16566C84.6427 7.08161 84.5305 7.03365 84.4129 7.03223H82.7142V7.03941Z" fill="#010101"/>
<path fill-rule="evenodd" clip-rule="evenodd" d="M66.3428 7.03955C65.7113 7.07005 65.1137 7.33532 64.6666 7.78363C64.2195 8.23194 63.955 8.83115 63.9246 9.46442V18.0654V18.1749C63.924 18.828 64.1754 19.456 64.6262 19.9274C65.077 20.3988 65.6921 20.677 66.3428 20.7039H75.6186C76.2683 20.6735 76.8815 20.3938 77.3313 19.9228C77.7811 19.4517 78.0331 18.8253 78.0351 18.1731V18.0636V9.46981C78.0093 8.8367 77.7474 8.23639 77.3012 7.78767C76.855 7.33895 76.2571 7.07453 75.6258 7.04673H66.3428V7.03955ZM68.0756 9.46981C67.6788 9.48802 67.3033 9.65521 67.0238 9.93819C66.7442 10.2212 66.581 10.5992 66.5666 10.9972V16.4088V16.477C66.5647 16.8866 66.7206 17.2812 67.0017 17.5785C67.2828 17.8757 67.6675 18.0528 68.0756 18.0726H73.8913C74.2995 18.0528 74.6844 17.8758 74.9658 17.5786C75.2472 17.2814 75.4034 16.8868 75.402 16.477V16.4088V10.9972C75.386 10.5994 75.222 10.2221 74.9424 9.93941C74.6628 9.65673 74.2879 9.48921 73.8913 9.46981H68.0756Z" fill="#010101"/>
<path fill-rule="evenodd" clip-rule="evenodd" d="M109.405 20.2786C109.404 20.3965 109.45 20.5099 109.533 20.5939C109.615 20.678 109.728 20.7259 109.845 20.7273H111.578C111.636 20.7271 111.694 20.7153 111.748 20.6926C111.802 20.6699 111.85 20.6367 111.891 20.595C111.932 20.5533 111.965 20.5038 111.986 20.4495C112.008 20.3952 112.019 20.3371 112.018 20.2786V9.68889V9.58119C112.02 8.93355 111.773 8.31012 111.328 7.84093C110.883 7.37175 110.274 7.09305 109.629 7.06299H100.616C100.285 7.06297 99.9568 7.12879 99.6512 7.25664C99.3455 7.38449 99.0681 7.57183 98.8351 7.80784C98.602 8.04384 98.418 8.32383 98.2935 8.63161C98.169 8.93938 98.1067 9.26884 98.11 9.60094V9.71042V20.3002C98.1095 20.4181 98.1555 20.5314 98.238 20.6155C98.3205 20.6995 98.4327 20.7475 98.5503 20.7489H100.283C100.341 20.7489 100.399 20.7372 100.453 20.7146C100.507 20.692 100.556 20.6588 100.597 20.617C100.638 20.5753 100.67 20.5257 100.692 20.4713C100.714 20.4169 100.724 20.3588 100.723 20.3002V15.8794C100.723 15.7615 100.769 15.6482 100.851 15.5641C100.934 15.4801 101.046 15.4321 101.164 15.4307H108.984C109.043 15.4309 109.1 15.4427 109.154 15.4655C109.208 15.4882 109.257 15.5213 109.298 15.5631C109.339 15.6048 109.371 15.6542 109.393 15.7085C109.414 15.7628 109.425 15.8209 109.425 15.8794V20.2786H109.405ZM100.718 12.9861V10.7945C100.716 10.3869 100.875 9.99495 101.16 9.70485C101.446 9.41475 101.835 9.2502 102.241 9.24735H107.889C108.295 9.2502 108.684 9.41475 108.97 9.70485C109.255 9.99495 109.414 10.3869 109.412 10.7945V12.9861C109.413 13.104 109.367 13.2173 109.284 13.3014C109.202 13.3854 109.089 13.4334 108.972 13.4348H101.158C101.1 13.4348 101.042 13.4231 100.988 13.4005C100.934 13.3779 100.885 13.3447 100.844 13.3029C100.803 13.2612 100.771 13.2116 100.749 13.1572C100.728 13.1028 100.717 13.0447 100.718 12.9861Z" fill="#010101"/>
<path fill-rule="evenodd" clip-rule="evenodd" d="M146.001 20.7274C145.943 20.7274 145.885 20.7157 145.831 20.6931C145.777 20.6705 145.728 20.6373 145.687 20.5955C145.646 20.5538 145.614 20.5043 145.592 20.4499C145.571 20.3955 145.56 20.3373 145.561 20.2787V15.8723C145.562 15.7545 145.515 15.6414 145.433 15.5576C145.35 15.4739 145.238 15.4263 145.121 15.4253H137.22C137.161 15.4251 137.103 15.4365 137.05 15.459C136.996 15.4814 136.947 15.5144 136.906 15.556C136.865 15.5977 136.832 15.6471 136.811 15.7014C136.789 15.7557 136.778 15.8138 136.779 15.8723V20.2787C136.78 20.3966 136.734 20.5099 136.651 20.594C136.569 20.678 136.457 20.726 136.339 20.7274H134.599C134.541 20.7272 134.483 20.7154 134.429 20.6926C134.375 20.6699 134.327 20.6367 134.286 20.595C134.245 20.5533 134.212 20.5039 134.191 20.4496C134.169 20.3953 134.158 20.3372 134.159 20.2787V9.68894V9.58125C134.158 8.90876 134.424 8.26358 134.898 7.78739C135.371 7.3112 136.014 7.04293 136.684 7.0415H145.79C146.44 7.07325 147.052 7.35394 147.501 7.82559C147.95 8.29723 148.202 8.9238 148.203 9.57586V9.68356V20.2733C148.204 20.3912 148.158 20.5045 148.075 20.5886C147.993 20.6726 147.88 20.7206 147.763 20.722H146.001V20.7274ZM136.779 10.7946V12.9861C136.779 13.0446 136.79 13.1026 136.812 13.1567C136.834 13.2109 136.866 13.2603 136.907 13.3019C136.948 13.3436 136.996 13.3768 137.05 13.3996C137.104 13.4224 137.161 13.4344 137.22 13.4348H145.121C145.179 13.4346 145.237 13.4228 145.291 13.4001C145.344 13.3773 145.393 13.3442 145.434 13.3025C145.475 13.2607 145.507 13.2113 145.529 13.157C145.551 13.1027 145.562 13.0446 145.561 12.9861V10.7946C145.562 10.385 145.4 9.99204 145.112 9.70194C144.823 9.41184 144.432 9.24835 144.023 9.2474H138.315C138.113 9.2474 137.913 9.28747 137.726 9.36531C137.539 9.44315 137.369 9.55723 137.227 9.70099C137.084 9.84475 136.971 10.0154 136.894 10.203C136.817 10.3907 136.778 10.5917 136.779 10.7946Z" fill="#010101"/>
<path d="M118.545 7.03958C118.608 7.03878 118.671 7.05241 118.729 7.07945C118.787 7.10649 118.837 7.14624 118.878 7.19574L126.65 16.4914C126.708 16.56 126.787 16.6089 126.874 16.6312C126.961 16.6536 127.053 16.6485 127.138 16.6165C127.222 16.5845 127.295 16.5273 127.345 16.4525C127.396 16.3778 127.423 16.2892 127.421 16.1988V7.4883C127.421 7.37039 127.467 7.25706 127.549 7.17301C127.632 7.08896 127.744 7.041 127.862 7.03958H129.587C129.646 7.03958 129.703 7.05123 129.757 7.07387C129.811 7.09651 129.86 7.12967 129.901 7.17144C129.942 7.2132 129.974 7.26273 129.996 7.31713C130.018 7.37153 130.028 7.42972 130.027 7.4883V20.2786C130.028 20.3965 129.982 20.5098 129.899 20.5938C129.817 20.6779 129.705 20.7259 129.587 20.7273H127.439C127.435 20.7269 127.432 20.7252 127.429 20.7226C127.427 20.72 127.425 20.7166 127.425 20.7129C127.425 20.7129 127.425 20.7129 127.425 20.7003L119.517 11.4729C119.457 11.4053 119.379 11.3574 119.292 11.3356C119.205 11.3138 119.114 11.3191 119.03 11.351C118.946 11.3828 118.874 11.4395 118.823 11.5136C118.772 11.5877 118.745 11.6756 118.745 11.7655V20.2857C118.746 20.4036 118.7 20.517 118.617 20.601C118.535 20.6851 118.422 20.733 118.305 20.7345H116.558C116.499 20.7342 116.442 20.7224 116.388 20.6997C116.334 20.677 116.285 20.6438 116.244 20.6021C116.203 20.5604 116.171 20.5109 116.149 20.4566C116.127 20.4023 116.117 20.3443 116.117 20.2857V7.4883C116.117 7.37039 116.163 7.25706 116.245 7.17301C116.328 7.08896 116.44 7.041 116.558 7.03958H118.545Z" fill="#010101"/>
<path d="M5.73696 21.1957C5.84354 21.0884 5.97017 21.0032 6.10961 20.945C6.24906 20.8868 6.39858 20.8567 6.54962 20.8565H34.7493C34.8633 20.8556 34.975 20.8889 35.0701 20.952C35.1652 21.0152 35.2393 21.1054 35.2829 21.211C35.3265 21.3166 35.3377 21.433 35.3151 21.545C35.2924 21.6571 35.2369 21.7598 35.1556 21.8401L29.5833 27.4275C29.4769 27.535 29.3503 27.6203 29.2108 27.6785C29.0713 27.7367 28.9218 27.7667 28.7707 27.7667H0.57102C0.457825 27.7657 0.347458 27.7311 0.253773 27.6674C0.160088 27.6037 0.0872598 27.5137 0.0444281 27.4086C0.00159641 27.3035 -0.00933052 27.1881 0.0130206 27.0768C0.0353717 26.9656 0.0900045 26.8634 0.170061 26.7831L5.73696 21.1957Z" fill="#010101"/>
<path d="M5.73704 0.339251C5.84361 0.231929 5.97025 0.146726 6.10969 0.0885174C6.24913 0.0303091 6.39865 0.0002351 6.5497 1.71806e-05H34.7494C34.8634 -0.000867136 34.9751 0.032405 35.0702 0.0955669C35.1652 0.158729 35.2393 0.248908 35.283 0.354555C35.3266 0.460202 35.3378 0.576505 35.3151 0.688574C35.2925 0.800642 35.2369 0.903374 35.1557 0.983609L29.5834 6.56386C29.477 6.67159 29.3505 6.75717 29.211 6.8157C29.0716 6.87422 28.9219 6.90453 28.7708 6.90489H0.571096C0.457531 6.9042 0.346718 6.86977 0.252651 6.80597C0.158584 6.74217 0.085483 6.65185 0.0425798 6.54641C-0.000323414 6.44097 -0.0111044 6.32515 0.0115984 6.21357C0.0343013 6.10199 0.0894702 5.99966 0.170137 5.91951L5.73704 0.339251Z" fill="#010101"/>
<path d="M29.5833 10.6993C29.4769 10.5919 29.3503 10.5066 29.2108 10.4483C29.0713 10.3901 28.9218 10.3601 28.7707 10.3601H0.57102C0.457825 10.3612 0.347458 10.3957 0.253773 10.4594C0.160088 10.5231 0.0872598 10.6132 0.0444281 10.7182C0.00159641 10.8233 -0.00933052 10.9387 0.0130206 11.05C0.0353717 11.1613 0.0900045 11.2634 0.170061 11.3437L5.73696 16.9347C5.84354 17.042 5.97017 17.1272 6.10961 17.1855C6.24906 17.2437 6.39858 17.2737 6.54962 17.274H34.7493C34.8633 17.2743 34.9749 17.2407 35.0697 17.1773C35.1646 17.1139 35.2386 17.0236 35.2821 16.918C35.3257 16.8123 35.3369 16.696 35.3144 16.584C35.2919 16.4719 35.2366 16.3691 35.1556 16.2886L29.5833 10.6993Z" fill="#010101"/>
</svg>
