<?xml version="1.0" encoding="UTF-8" standalone="no"?>
<!-- Generator: Adobe Illustrator 27.2.0, SVG Export Plug-In . SVG Version: 6.00 Build 0)  -->

<svg
   version="1.1"
   id="Слой_1"
   x="0px"
   y="0px"
   viewBox="0 0 699.99999 700.00004"
   xml:space="preserve"
   sodipodi:docname="1.svg"
   width="700"
   height="700"
   inkscape:version="1.2.2 (b0a8486541, 2022-12-01)"
   xmlns:inkscape="http://www.inkscape.org/namespaces/inkscape"
   xmlns:sodipodi="http://sodipodi.sourceforge.net/DTD/sodipodi-0.dtd"
   xmlns="http://www.w3.org/2000/svg"
   xmlns:svg="http://www.w3.org/2000/svg"><defs
   id="defs51" /><sodipodi:namedview
   id="namedview49"
   pagecolor="#ffffff"
   bordercolor="#000000"
   borderopacity="0.25"
   inkscape:showpageshadow="2"
   inkscape:pageopacity="0.0"
   inkscape:pagecheckerboard="0"
   inkscape:deskcolor="#d1d1d1"
   showgrid="false"
   inkscape:zoom="0.8722285"
   inkscape:cx="122.67428"
   inkscape:cy="317.00409"
   inkscape:window-width="2560"
   inkscape:window-height="1401"
   inkscape:window-x="0"
   inkscape:window-y="0"
   inkscape:window-maximized="1"
   inkscape:current-layer="g46" />
<style
   type="text/css"
   id="style2">
	.st0{fill:#FFFFFF;}
	.st1{fill:#404040;}
	.st2{fill:none;}
	.st3{fill:#FF7E06;}
</style>
<g
   id="g46"
   transform="translate(-445.95786,-210.38065)">
	
	<g
   id="g44"
   transform="translate(32.40786,246.73065)">
		<path
   class="st1"
   d="m 1037.6,627.3 h 57.3 L 916.9,443.4 854.5,319.8 h -15.4 l -11.5,16.4 h -21.2 v 37.7 h 6 c 3.6,-12.7 15.2,-22.1 29.1,-22.1 16.6,0 30.2,13.5 30.2,30.2 0,16.7 -13.5,30.2 -30.2,30.2 -13.8,0 -25.5,-9.4 -29.1,-22.1 H 790.3 V 390 h -0.2 v -53.8 h -18.7 v 87.7 c 12.7,3.6 22.1,15.2 22.1,29.1 0,16.6 -13.5,30.2 -30.2,30.2 -16.6,0 -30.2,-13.5 -30.2,-30.2 0,-13.8 9.4,-25.5 22.1,-29.1 V 336.2 H 736 V 390 h -0.2 v 0.1 H 716 c -3.6,12.7 -15.2,22.1 -29.1,22.1 -16.6,0 -30.2,-13.5 -30.2,-30.2 0,-16.7 13.5,-30.2 30.2,-30.2 13.8,0 25.5,9.4 29.1,22.1 h 3.9 V 336.2 H 706.3 L 694.8,319.8 H 679.3 L 610.1,443.4 432.2,627.3 h 57.3 l 137.6,-160 2,34.1 c 0,0 -59.1,65.1 -58.1,64.5 1,-0.7 74.8,-54.5 74.8,-54.5 l 30.2,-43.9 -23.6,67.4 49.5,-50.2 31.2,-60.8 -18.6,95 -96.7,108.3 h 78.4 l 52.5,-106.2 14.8,20.9 v 0.2 l 0.1,-0.1 0.1,0.1 v -0.2 L 778.5,521 831,627.3 h 78.4 L 812.6,519 794,424 l 31.2,60.8 49.5,50.2 -23.6,-67.4 30.2,43.9 c 0,0 73.8,53.8 74.8,54.5 1,0.7 -58.1,-64.5 -58.1,-64.5 l 2,-34.1 z"
   id="path22" />
		<path
   class="st1"
   d="m 686.9,368 c -7.7,0 -14,6.3 -14,14 0,7.7 6.3,14 14,14 7.7,0 14,-6.3 14,-14 0,-7.7 -6.3,-14 -14,-14 z"
   id="path24" />
		<circle
   class="st1"
   cx="841.59998"
   cy="382"
   r="14"
   id="circle26" />
		<path
   class="st1"
   d="m 749.6,453 c 0,7.7 6.3,14 14,14 7.7,0 14,-6.3 14,-14 0,-7.7 -6.3,-14 -14,-14 -7.7,0 -14,6.3 -14,14 z"
   id="path28" />
		<g
   id="g42">
			<path
   class="st2"
   d="m 763.5,52.3 c 10.2,0 18.4,-8.3 18.4,-18.4 0,-10.1 -8.3,-18.4 -18.4,-18.4 -10.2,0 -18.4,8.3 -18.4,18.4 0,10.1 8.3,18.4 18.4,18.4 z"
   id="path30" />
			<circle
   class="st2"
   cx="694.40002"
   cy="92.699997"
   r="11.5"
   id="circle32" />
			<circle
   class="st2"
   cx="831.90002"
   cy="92.699997"
   r="11.5"
   id="circle34" />
			<path
   class="st3"
   d="m 596.8,251.2 c 19.7,0 36.6,-13 36.6,-13 69.5,4.5 82.6,82 82.6,82 h 4.4 13.2 c 0,0.3 0,0.7 0,1 v -1 h 2.2 V 168 l -33.7,-33.7 v -15.8 c 11.1,-3.3 19.2,-13.6 19.2,-25.8 0,-14.9 -12.1,-27 -27,-27 -14.9,0 -27,12.1 -27,27 0,12.2 8.1,22.5 19.2,25.8 v 22.2 l 33.7,33.7 v 72.4 c -5.4,-15.8 -16.4,-25.5 -16.4,-25.5 3.2,-40.6 -33.4,-51.8 -33.4,-51.8 8,-14.2 0.2,-57.6 -36.1,-57.6 -65,0 -53.3,53.5 -53.3,53.5 0,0 -32.4,10.8 -32.4,42.7 0.1,31.9 28.5,43.1 48.2,43.1 z M 682.9,92.7 c 0,-6.3 5.2,-11.5 11.5,-11.5 6.3,0 11.5,5.2 11.5,11.5 0,6.3 -5.2,11.5 -11.5,11.5 -6.3,0 -11.5,-5.2 -11.5,-11.5 z"
   id="path36" />
			<path
   class="st3"
   d="m 824.2,118.5 v 15.8 L 790.5,168 v 152.2 h 2.2 v 1 c 0,-0.3 0,-0.7 0,-1 h 13.2 4.4 c 0,0 13,-77.5 82.6,-82 0,0 16.9,13 36.6,13 19.7,0 48.1,-11.2 48.1,-43.1 0,-31.9 -32.4,-42.7 -32.4,-42.7 0,0 11.7,-53.5 -53.3,-53.5 -36.4,0 -44.1,43.4 -36.1,57.6 0,0 -36.6,11.2 -33.4,51.8 0,0 -11,9.6 -16.4,25.5 v -72.4 l 33.7,-33.7 v -22.2 c 11.1,-3.3 19.2,-13.6 19.2,-25.8 0,-14.9 -12.1,-27 -27,-27 -14.9,0 -27,12.1 -27,27 0,12.1 8.2,22.4 19.3,25.8 z m 7.7,-37.3 c 6.3,0 11.5,5.2 11.5,11.5 0,6.3 -5.2,11.5 -11.5,11.5 -6.3,0 -11.5,-5.2 -11.5,-11.5 0,-6.3 5.2,-11.5 11.5,-11.5 z"
   id="path38" />
			<path
   class="st3"
   d="m 755.8,66.9 v 254.3 h 15.4 V 66.9 c 15,-3.5 26.2,-17 26.2,-33 C 797.4,15.2 782.2,0 763.5,0 c -18.7,0 -33.9,15.2 -33.9,33.9 0,16 11.2,29.5 26.2,33 z m 7.7,-51.5 c 10.2,0 18.4,8.3 18.4,18.4 0,10.1 -8.3,18.4 -18.4,18.4 -10.2,0 -18.4,-8.3 -18.4,-18.4 0,-10.1 8.3,-18.4 18.4,-18.4 z"
   id="path40" />
		</g>
	</g>
</g>
</svg>
