<?xml version="1.0" encoding="UTF-8" standalone="no"?>
<!DOCTYPE svg PUBLIC "-//W3C//DTD SVG 1.1//EN" "http://www.w3.org/Graphics/SVG/1.1/DTD/svg11.dtd">
<svg xmlns="http://www.w3.org/2000/svg" version="1.1" viewBox="0.00 0.00 500.00 500.00">
<g stroke-width="2.00" fill="none" stroke-linecap="butt">
<path stroke="#04c56c" vector-effect="non-scaling-stroke" d="
  M 244.00 63.90
  L 244.97 63.84"
/>
<path stroke="#06d87e" vector-effect="non-scaling-stroke" d="
  M 399.25 88.92
  Q 396.01 89.93 393.20 89.53"
/>
<path stroke="#04c96b" vector-effect="non-scaling-stroke" d="
  M 393.20 89.53
  Q 377.09 82.66 364.97 80.53
  Q 356.86 79.11 356.68 79.07
  C 348.98 77.30 341.26 76.89 333.54 75.46
  C 326.59 74.17 319.69 73.51 312.71 72.72"
/>
<path stroke="#0ad96b" vector-effect="non-scaling-stroke" d="
  M 312.71 72.72
  C 309.15 72.61 305.39 71.51 302.27 71.53
  C 297.06 71.58 292.82 70.15 287.97 70.08
  Q 281.22 69.98 271.70 68.89
  Q 268.61 68.54 252.22 67.54
  C 248.91 67.34 245.35 66.46 242.25 66.35
  Q 208.96 65.15 174.84 65.81
  C 160.82 66.09 154.70 67.08 139.05 69.19
  Q 112.67 72.76 97.49 93.65
  C 95.11 96.91 93.25 100.91 91.43 104.71"
/>
<path stroke="#06d87e" vector-effect="non-scaling-stroke" d="
  M 91.43 104.71
  Q 86.10 114.98 83.98 126.30
  C 81.46 139.85 80.74 147.06 77.72 158.73
  Q 76.39 163.84 75.05 173.23
  Q 74.57 176.61 72.24 179.48"
/>
<path stroke="#05aa6c" vector-effect="non-scaling-stroke" d="
  M 72.35 178.22
  Q 72.69 177.79 72.49 177.04"
/>
<path stroke="#05aa6c" vector-effect="non-scaling-stroke" d="
  M 73.51 167.80
  Q 73.92 167.36 73.68 166.46"
/>
<path stroke="#04bc6a" vector-effect="non-scaling-stroke" d="
  M 73.82 165.04
  Q 74.12 164.44 74.00 163.54"
/>
<path stroke="#05aa6c" vector-effect="non-scaling-stroke" d="
  M 77.55 138.77
  L 77.72 137.50"
/>
<path stroke="#05aa6c" vector-effect="non-scaling-stroke" d="
  M 77.72 137.50
  Q 77.99 136.99 77.85 136.28"
/>
<path stroke="#05aa6c" vector-effect="non-scaling-stroke" d="
  M 81.35 119.46
  Q 81.81 118.91 81.67 117.73"
/>
<path stroke="#05aa6c" vector-effect="non-scaling-stroke" d="
  M 127.34 68.05
  Q 127.98 67.93 128.21 67.71"
/>
<path stroke="#04bc6a" vector-effect="non-scaling-stroke" d="
  M 164.05 62.75
  L 165.75 62.59"
/>
<path stroke="#05aa6c" vector-effect="non-scaling-stroke" d="
  M 172.54 62.13
  Q 173.59 62.24 174.49 61.98"
/>
<path stroke="#02cb57" vector-effect="non-scaling-stroke" d="
  M 393.20 89.53
  Q 395.92 91.45 398.66 93.12
  Q 402.30 95.33 403.95 96.90
  Q 413.37 105.88 419.23 117.60
  C 421.19 121.52 422.08 125.97 423.53 130.29
  Q 424.80 134.10 425.58 140.13
  Q 427.86 157.70 428.17 171.11
  Q 428.89 203.06 426.12 241.78"
/>
<path stroke="#06cc44" vector-effect="non-scaling-stroke" d="
  M 426.12 241.78
  Q 423.95 267.53 420.32 284.77
  Q 412.22 323.20 409.98 334.83
  Q 406.14 354.72 398.46 373.42
  Q 394.06 384.13 386.04 391.94"
/>
<path stroke="#02c345" vector-effect="non-scaling-stroke" d="
  M 386.04 391.94
  Q 393.17 376.98 397.04 360.54"
/>
<path stroke="#00b845" vector-effect="non-scaling-stroke" d="
  M 397.04 360.54
  Q 405.15 340.69 409.81 315.36
  C 418.55 267.77 424.16 225.52 423.68 179.10
  Q 423.49 160.35 419.54 142.99
  C 416.97 131.69 407.40 109.02 393.60 107.31
  A 0.23 0.22 70.1 0 0 393.42 107.70
  Q 405.22 118.73 409.19 134.39
  A 0.83 0.82 -31.9 0 1 409.01 135.14
  Q 404.91 139.80 399.49 136.54
  C 395.04 133.87 390.63 128.95 384.05 129.56
  C 381.42 129.80 377.60 132.07 375.70 133.64
  Q 365.84 141.79 363.86 143.17
  Q 351.66 151.74 336.78 150.61
  C 324.27 149.66 312.38 146.47 300.43 143.30"
/>
<path stroke="#019d45" vector-effect="non-scaling-stroke" d="
  M 300.43 143.30
  L 295.00 137.65"
/>
<path stroke="#00b845" vector-effect="non-scaling-stroke" d="
  M 295.00 137.65
  L 283.83 130.03"
/>
<path stroke="#02c345" vector-effect="non-scaling-stroke" d="
  M 283.83 130.03
  C 303.48 127.75 324.93 121.95 336.51 104.31
  Q 341.73 96.36 348.19 85.66
  A 0.31 0.31 0.0 0 0 347.98 85.20
  Q 328.04 81.62 307.81 79.95"
/>
<path stroke="#2ad25a" vector-effect="non-scaling-stroke" d="
  M 303.71 77.62
  Q 304.48 76.83 303.30 75.93"
/>
<path stroke="#06cc44" vector-effect="non-scaling-stroke" d="
  M 312.71 72.72
  C 309.67 72.56 304.31 72.29 303.30 75.93"
/>
<path stroke="#30e25a" vector-effect="non-scaling-stroke" d="
  M 303.30 75.93
  Q 302.78 75.94 302.50 76.16
  Q 302.14 76.44 302.30 76.92
  Q 302.53 77.65 303.71 77.62"
/>
<path stroke="#06cc44" vector-effect="non-scaling-stroke" d="
  M 303.71 77.62
  Q 305.11 79.38 307.81 79.95"
/>
<path stroke="#08d345" vector-effect="non-scaling-stroke" d="
  M 307.81 79.95
  L 302.54 79.95
  A 1.80 1.80 0.0 0 0 301.66 80.18
  C 299.25 81.59 292.62 85.76 294.60 88.87
  Q 295.90 90.92 297.25 92.81
  C 300.86 97.88 295.13 102.82 290.82 105.73
  Q 280.90 112.41 271.02 119.21"
/>
<path stroke="#30e25a" vector-effect="non-scaling-stroke" d="
  M 271.02 119.21
  Q 247.65 110.78 224.73 121.01
  Q 223.14 121.72 220.11 123.55"
/>
<path stroke="#55e373" vector-effect="non-scaling-stroke" d="
  M 220.11 123.55
  Q 207.47 129.48 199.84 137.85
  Q 193.05 145.30 187.33 160.05
  A 1.30 1.28 -50.2 0 0 187.42 161.14
  L 187.75 161.72
  A 0.42 0.42 0.0 0 0 188.47 161.72
  L 199.18 143.49"
/>
<path stroke="#06c845" vector-effect="non-scaling-stroke" d="
  M 199.18 143.49
  C 195.74 150.37 191.35 157.82 189.43 164.53
  Q 187.65 170.74 187.36 177.31"
/>
<path stroke="#07ad45" vector-effect="non-scaling-stroke" d="
  M 187.36 177.31
  L 187.64 187.08"
/>
<path stroke="#08d345" vector-effect="non-scaling-stroke" d="
  M 187.64 187.08
  Q 161.27 198.48 145.72 203.77
  Q 130.15 209.06 116.89 210.01
  Q 110.51 210.47 103.94 211.41
  A 0.49 0.49 0.0 0 1 103.38 210.92
  Q 103.39 210.71 103.49 210.54
  A 0.18 0.15 -7.6 0 1 103.56 210.46
  L 110.81 205.98
  A 1.06 1.06 0.0 0 0 111.27 204.79
  Q 110.10 200.65 109.38 200.00
  Q 106.22 197.16 103.53 200.77"
/>
<path stroke="#55e373" vector-effect="non-scaling-stroke" d="
  M 103.53 200.77
  Q 100.75 196.38 99.01 203.80"
/>
<path stroke="#08d345" vector-effect="non-scaling-stroke" d="
  M 99.01 203.80
  Q 97.69 204.72 97.52 205.96
  Q 97.37 207.00 98.57 208.24
  Q 102.03 211.81 100.69 216.86
  Q 98.69 224.35 97.79 226.07
  Q 92.21 236.67 88.62 247.05
  C 87.65 249.83 85.98 252.77 84.69 254.78
  A 0.59 0.59 0.0 0 1 83.61 254.51
  Q 83.47 252.76 83.78 248.78
  Q 85.27 229.88 84.46 210.96"
/>
<path stroke="#30e25a" vector-effect="non-scaling-stroke" d="
  M 84.46 210.96
  Q 85.04 203.17 85.09 200.90
  Q 85.50 179.70 86.45 170.26
  Q 87.41 160.58 89.14 155.29"
/>
<path stroke="#08db57" vector-effect="non-scaling-stroke" d="
  M 89.14 155.29
  Q 87.50 162.81 87.14 170.47
  Q 85.77 199.19 85.04 225.09
  A 0.32 0.32 0.0 0 0 85.35 225.42
  L 85.37 225.42
  A 0.32 0.32 0.0 0 0 85.70 225.11
  Q 87.46 191.76 89.10 167.73
  Q 89.66 159.52 92.65 151.43"
/>
<path stroke="#30e25a" vector-effect="non-scaling-stroke" d="
  M 92.65 151.43
  L 91.72 160.23"
/>
<path stroke="#30e25a" vector-effect="non-scaling-stroke" d="
  M 91.72 160.23
  Q 89.90 169.91 89.18 179.76
  Q 89.16 179.98 89.37 180.00
  A 0.15 0.14 -80.5 0 0 89.52 179.89
  Q 91.39 170.17 91.72 160.23"
/>
<path stroke="#30e25a" vector-effect="non-scaling-stroke" d="
  M 91.72 160.23
  L 90.75 185.98
  A 0.52 0.52 0.0 0 0 91.52 186.45
  L 92.21 186.05
  A 0.75 0.71 -5.8 0 0 92.52 185.69
  Q 93.97 181.97 94.51 179.49
  Q 97.98 163.45 99.40 156.80
  A 2.35 2.33 -18.2 0 1 99.94 155.74
  Q 102.54 152.83 121.35 129.09
  C 136.56 109.88 156.44 99.51 179.82 93.24
  Q 208.92 85.43 238.82 81.26
  A 0.45 0.45 0.0 0 0 239.21 80.84
  L 239.48 73.90
  A 0.14 0.13 4.2 0 0 239.35 73.76
  Q 204.33 72.65 171.72 72.40
  Q 162.48 72.33 144.70 73.04
  C 122.89 73.90 103.47 86.60 96.75 107.69
  C 93.94 116.51 93.28 123.16 92.00 133.94
  Q 91.17 140.91 88.69 147.41"
/>
<path stroke="#08d345" vector-effect="non-scaling-stroke" d="
  M 88.69 147.41
  Q 88.79 138.46 89.63 133.51
  C 91.87 120.21 93.06 112.00 93.62 104.31
  A 0.20 0.20 0.0 0 0 93.24 104.21
  C 87.81 115.77 85.39 128.64 82.35 141.31"
/>
<path stroke="#08db57" vector-effect="non-scaling-stroke" d="
  M 82.35 141.31
  C 83.83 127.99 86.68 117.41 91.43 104.71"
/>
<path stroke="#02cb57" vector-effect="non-scaling-stroke" d="
  M 113.75 415.25
  L 120.32 417.76"
/>
<path stroke="#08db57" vector-effect="non-scaling-stroke" d="
  M 288.21 435.80
  Q 300.28 435.93 312.36 436.90
  Q 312.36 436.91 312.37 436.91
  Q 299.92 436.96 287.48 436.28
  Q 281.41 435.95 262.26 437.64
  Q 259.40 437.89 259.50 439.72"
/>
<path stroke="#02bf56" vector-effect="non-scaling-stroke" d="
  M 258.00 439.65
  L 257.04 439.57"
/>
<path stroke="#02bf56" vector-effect="non-scaling-stroke" d="
  M 227.04 437.19
  Q 226.58 436.95 225.96 437.09"
/>
<path stroke="#02bf56" vector-effect="non-scaling-stroke" d="
  M 215.06 436.10
  L 213.71 436.13"
/>
<path stroke="#02bf56" vector-effect="non-scaling-stroke" d="
  M 208.96 435.67
  L 208.04 435.61"
/>
<path stroke="#03ac57" vector-effect="non-scaling-stroke" d="
  M 207.04 435.41
  L 205.54 435.26"
/>
<path stroke="#02bf56" vector-effect="non-scaling-stroke" d="
  M 195.54 434.20
  Q 194.76 433.91 193.71 434.11"
/>
<path stroke="#03ac57" vector-effect="non-scaling-stroke" d="
  M 189.04 433.63
  Q 188.50 433.26 188.04 433.53"
/>
<path stroke="#03ac57" vector-effect="non-scaling-stroke" d="
  M 187.54 433.43
  Q 187.02 433.04 186.04 433.28"
/>
<path stroke="#03ac57" vector-effect="non-scaling-stroke" d="
  M 178.96 432.41
  Q 178.55 432.15 178.03 432.29"
/>
<path stroke="#02bf56" vector-effect="non-scaling-stroke" d="
  M 176.54 432.16
  Q 176.06 431.98 175.47 432.03"
/>
<path stroke="#03ac57" vector-effect="non-scaling-stroke" d="
  M 65.80 255.21
  L 65.91 251.97"
/>
<path stroke="#02c758" vector-effect="non-scaling-stroke" d="
  M 66.52 244.80
  Q 66.93 244.32 66.63 243.21"
/>
<path stroke="#03ac57" vector-effect="non-scaling-stroke" d="
  M 67.90 226.72
  L 67.91 225.48"
/>
<path stroke="#03ac57" vector-effect="non-scaling-stroke" d="
  M 70.45 195.79
  Q 70.77 195.38 70.66 194.46"
/>
<path stroke="#03ac57" vector-effect="non-scaling-stroke" d="
  M 71.44 186.72
  Q 71.82 186.09 71.62 185.00"
/>
<path stroke="#02bf56" vector-effect="non-scaling-stroke" d="
  M 427.68 280.54
  L 427.66 281.97"
/>
<path stroke="#02bf56" vector-effect="non-scaling-stroke" d="
  M 426.74 292.53
  Q 426.55 292.93 426.62 293.46"
/>
<path stroke="#02bf56" vector-effect="non-scaling-stroke" d="
  M 426.22 297.95
  Q 425.86 299.26 426.10 300.71"
/>
<path stroke="#03ac57" vector-effect="non-scaling-stroke" d="
  M 424.49 316.96
  Q 423.91 317.47 424.25 318.50"
/>
<path stroke="#03ac57" vector-effect="non-scaling-stroke" d="
  M 424.25 318.50
  Q 423.72 319.02 424.05 320.05"
/>
<path stroke="#03ac57" vector-effect="non-scaling-stroke" d="
  M 423.99 321.04
  Q 423.75 321.42 423.84 321.96"
/>
<path stroke="#2ce16d" vector-effect="non-scaling-stroke" d="
  M 423.60 324.54
  L 424.10 313.01
  A 0.18 0.18 0.0 0 0 423.75 312.94
  C 423.01 314.96 422.13 317.32 421.77 319.64
  Q 419.94 331.41 416.40 345.00
  C 414.22 353.41 412.50 363.49 410.88 369.92
  Q 408.74 378.41 403.87 389.50"
/>
<path stroke="#08db57" vector-effect="non-scaling-stroke" d="
  M 403.87 389.50
  Q 409.94 372.55 411.46 364.84
  Q 412.34 360.33 413.16 351.50
  Q 413.61 346.67 413.91 345.35
  Q 416.90 332.34 418.80 318.04
  Q 423.83 280.04 426.12 241.78"
/>
<path stroke="#019946" vector-effect="non-scaling-stroke" d="
  M 295.00 137.65
  Q 275.09 128.22 269.70 126.50
  Q 245.40 118.74 222.88 129.18
  C 206.84 136.61 196.36 150.04 191.88 167.41
  Q 189.97 174.82 189.60 175.74
  A 0.17 0.17 0.0 0 1 189.30 175.76
  L 189.17 175.54
  A 0.42 0.41 54.7 0 0 188.55 175.43
  Q 187.71 176.15 187.36 177.31"
/>
<path stroke="#4fcf74" vector-effect="non-scaling-stroke" d="
  M 199.18 143.49
  Q 203.03 138.51 205.24 136.76
  Q 211.25 131.99 217.51 127.55
  Q 219.80 125.92 222.25 124.59"
/>
<path stroke="#02bf46" vector-effect="non-scaling-stroke" d="
  M 397.04 360.54
  Q 400.18 345.64 401.94 330.48
  C 403.27 319.00 405.28 307.01 404.67 294.38
  Q 404.57 292.32 403.59 289.72
  A 0.81 0.81 0.0 0 0 402.27 289.42
  Q 400.99 290.64 399.95 292.81
  Q 397.36 298.23 394.54 306.78
  Q 387.57 327.91 383.51 338.84
  Q 364.28 390.60 310.77 407.43
  Q 298.88 411.17 287.04 413.11
  Q 266.18 416.52 254.22 419.15"
/>
<path stroke="#00b144" vector-effect="non-scaling-stroke" d="
  M 254.22 419.15
  Q 227.92 417.66 213.71 415.83
  Q 176.25 411.01 168.01 410.00
  C 156.00 408.54 142.45 406.16 133.60 403.60
  C 117.78 399.04 103.19 391.40 92.85 378.58
  A 0.26 0.26 0.0 0 0 92.39 378.71
  Q 91.68 384.30 94.45 388.94
  C 108.36 412.23 140.46 416.54 164.78 418.43
  Q 198.99 421.09 219.63 422.10
  Q 240.39 423.12 268.94 420.33"
/>
<path stroke="#02bf46" vector-effect="non-scaling-stroke" d="
  M 268.94 420.33
  Q 285.21 420.66 301.40 421.87
  Q 311.62 422.63 332.13 421.92"
/>
<path stroke="#02c758" vector-effect="non-scaling-stroke" d="
  M 332.13 421.92
  L 340.28 421.94"
/>
<path stroke="#06c845" vector-effect="non-scaling-stroke" d="
  M 340.28 421.94
  Q 329.17 429.19 320.48 431.26
  C 309.84 433.81 299.07 434.80 288.21 435.80"
/>
<path stroke="#02c758" vector-effect="non-scaling-stroke" d="
  M 288.21 435.80
  Q 276.40 435.36 264.58 435.02
  C 255.72 434.77 248.13 433.95 240.41 433.11
  C 223.79 431.29 207.47 431.15 190.91 428.85
  C 180.49 427.40 168.47 426.91 157.19 424.75
  Q 153.82 424.10 145.78 423.17
  Q 132.75 421.65 120.32 417.76"
/>
<path stroke="#00b845" vector-effect="non-scaling-stroke" d="
  M 120.32 417.76
  Q 110.86 412.47 106.38 409.37
  Q 82.09 392.51 79.08 363.42
  C 78.53 358.12 79.45 351.66 83.45 348.39
  Q 88.86 343.96 89.15 343.67
  C 92.71 340.13 93.90 337.21 96.61 332.31
  C 99.26 327.52 104.13 330.94 107.15 332.66
  C 115.65 337.48 124.20 334.15 132.95 331.24
  C 141.11 328.53 147.88 327.45 157.31 325.08
  C 166.92 322.65 173.40 317.35 179.73 309.97"
/>
<path stroke="#019946" vector-effect="non-scaling-stroke" d="
  M 179.73 309.97
  Q 178.54 319.89 179.57 329.55"
/>
<path stroke="#00b144" vector-effect="non-scaling-stroke" d="
  M 179.57 329.55
  Q 174.17 343.44 161.54 350.45
  Q 155.19 353.97 152.51 354.93
  C 137.16 360.44 126.16 363.19 115.74 373.28
  A 0.19 0.19 0.0 0 0 115.94 373.60
  L 121.02 371.64
  A 0.39 0.39 0.0 0 1 121.39 372.32
  Q 119.20 373.93 116.09 375.04
  A 0.33 0.32 -33.0 0 0 115.97 375.58
  Q 124.62 383.69 131.00 388.09
  C 141.93 395.63 155.33 399.91 168.17 401.99
  Q 201.09 407.30 233.71 409.60
  Q 276.90 412.63 318.64 394.59
  Q 347.96 381.92 360.89 353.03
  Q 375.17 321.12 382.26 304.73
  Q 388.22 290.92 390.50 274.55
  Q 395.13 241.23 395.92 232.44
  C 397.44 215.69 396.54 195.52 396.38 181.50
  C 396.31 174.59 396.36 153.61 382.66 164.23
  Q 372.39 172.19 370.34 173.54
  Q 351.76 185.81 334.11 171.64
  Q 327.13 166.03 318.29 158.41
  Q 314.54 155.18 303.50 148.29"
/>
<path stroke="#019946" vector-effect="non-scaling-stroke" d="
  M 303.50 148.29
  L 300.43 143.30"
/>
<path stroke="#02bf46" vector-effect="non-scaling-stroke" d="
  M 283.83 130.03
  C 277.99 125.93 271.07 123.95 264.41 121.31"
/>
<path stroke="#2cd85b" vector-effect="non-scaling-stroke" d="
  M 264.41 121.31
  Q 268.14 121.09 271.02 119.21"
/>
<path stroke="#019644" vector-effect="non-scaling-stroke" d="
  M 303.50 148.29
  L 309.59 159.25"
/>
<path stroke="#019144" vector-effect="non-scaling-stroke" d="
  M 309.59 159.25
  Q 316.07 176.73 312.32 194.63
  C 310.64 202.61 308.89 209.02 303.53 215.34
  Q 301.83 217.34 297.27 219.14
  Q 294.75 220.14 289.40 225.90
  Q 286.12 229.42 278.94 232.07"
/>
<path stroke="#43538b" vector-effect="non-scaling-stroke" d="
  M 278.94 232.07
  Q 291.16 224.77 299.15 213.34"
/>
<path stroke="#355381" vector-effect="non-scaling-stroke" d="
  M 299.15 213.34
  L 303.24 206.20"
/>
<path stroke="#236476" vector-effect="non-scaling-stroke" d="
  M 303.24 206.20
  Q 306.92 197.42 307.48 194.73
  Q 309.34 185.73 308.82 178.28
  Q 308.18 169.14 303.27 156.73
  A 4.14 3.97 17.2 0 0 302.81 155.90
  Q 301.27 153.82 301.06 152.52
  A 1.67 1.65 18.7 0 0 300.59 151.59
  Q 298.65 149.63 296.26 145.06
  A 4.04 3.95 10.7 0 0 295.73 144.30
  Q 289.03 136.86 277.05 130.74
  Q 264.50 124.34 251.73 124.08"
/>
<path stroke="#407383" vector-effect="non-scaling-stroke" d="
  M 251.73 124.08
  Q 234.76 123.67 220.06 131.91
  C 218.48 132.79 217.11 134.05 215.46 134.91
  Q 213.68 135.84 212.01 137.15
  Q 198.17 148.02 193.44 165.30"
/>
<path stroke="#236476" vector-effect="non-scaling-stroke" d="
  M 193.44 165.30
  Q 189.28 179.91 192.61 194.43
  C 193.41 197.88 195.14 201.64 196.16 204.99
  C 199.86 217.10 211.28 225.87 221.60 232.31
  C 225.05 234.46 227.57 235.17 231.32 236.47
  Q 232.78 236.98 237.04 237.88
  Q 250.58 240.72 263.98 237.85"
/>
<path stroke="#019144" vector-effect="non-scaling-stroke" d="
  M 263.98 237.85
  L 271.27 236.26
  A 0.38 0.38 0.0 0 1 271.72 236.70
  Q 271.49 237.95 272.03 239.39
  A 0.76 0.74 -25.2 0 1 271.69 240.31
  Q 267.95 242.42 266.80 242.74
  Q 251.17 247.01 234.72 242.79
  Q 233.69 242.53 224.16 239.40
  Q 218.96 237.70 211.01 231.25"
/>
<path stroke="#019d45" vector-effect="non-scaling-stroke" d="
  M 211.01 231.25
  Q 205.00 226.38 200.29 220.40
  C 197.30 216.59 195.25 212.03 193.01 207.53"
/>
<path stroke="#30e25a" vector-effect="non-scaling-stroke" d="
  M 403.87 389.50
  Q 398.40 401.84 389.25 411.49
  Q 385.92 415.01 382.02 419.17
  Q 379.86 421.47 377.91 422.72
  Q 373.82 425.34 373.27 425.55
  Q 363.97 429.06 359.47 431.08
  A 4.67 4.55 28.4 0 1 358.28 431.42
  C 356.35 431.71 354.41 432.79 352.55 432.87
  C 349.58 432.99 346.25 434.47 342.73 435.05
  Q 327.61 437.54 312.63 437.34
  L 312.63 437.35
  A 0.02 0.01 0.0 0 0 312.65 437.36
  L 327.75 437.96
  A 0.09 0.09 0.0 0 1 327.77 438.14
  C 321.42 439.56 316.90 439.55 308.10 440.00
  Q 306.02 440.11 302.80 442.02"
/>
<path stroke="#07ad45" vector-effect="non-scaling-stroke" d="
  M 287.01 441.42
  Q 286.31 441.20 285.52 441.31"
/>
<path stroke="#07ad45" vector-effect="non-scaling-stroke" d="
  M 283.04 441.17
  Q 282.21 440.90 281.21 441.11"
/>
<path stroke="#06c043" vector-effect="non-scaling-stroke" d="
  M 273.04 440.64
  Q 272.62 440.31 272.04 440.54"
/>
<path stroke="#07ad45" vector-effect="non-scaling-stroke" d="
  M 266.96 440.14
  L 264.72 440.08"
/>
<path stroke="#08db57" vector-effect="non-scaling-stroke" d="
  M 340.28 421.94
  Q 345.80 421.05 351.32 419.98
  Q 361.21 418.07 369.02 412.53
  Q 371.15 411.02 376.62 406.71
  A 9.18 8.92 -89.0 0 0 378.03 405.31
  Q 382.65 399.55 385.59 392.69"
/>
<path stroke="#08d345" vector-effect="non-scaling-stroke" d="
  M 385.59 392.69
  Q 385.60 392.24 386.04 391.94"
/>
<path stroke="#03d257" vector-effect="non-scaling-stroke" d="
  M 385.59 392.69
  Q 379.52 397.97 375.45 404.43
  A 2.36 2.35 22.5 0 1 372.92 405.47
  L 369.81 404.76
  A 1.15 1.14 -48.4 0 0 369.18 404.80
  Q 362.80 407.12 360.54 408.79
  Q 355.76 412.31 353.14 413.96
  A 20.08 20.02 19.0 0 1 349.12 415.91
  L 332.13 421.92"
/>
<path stroke="#02bb44" vector-effect="non-scaling-stroke" d="
  M 268.94 420.33
  L 254.22 419.15"
/>
<path stroke="#50da73" vector-effect="non-scaling-stroke" d="
  M 99.01 203.80
  Q 102.31 205.23 103.53 200.77"
/>
<path stroke="#03a445" vector-effect="non-scaling-stroke" d="
  M 187.64 187.08
  Q 188.38 194.38 189.38 197.94
  Q 190.21 200.88 193.01 207.53"
/>
<path stroke="#02c345" vector-effect="non-scaling-stroke" d="
  M 193.01 207.53
  C 185.02 219.98 177.07 228.53 165.88 236.09
  C 149.76 246.99 129.88 257.93 117.50 265.32
  Q 110.85 269.28 103.82 271.36
  C 100.39 272.37 97.67 273.88 96.04 276.24
  Q 91.84 282.28 90.65 283.77
  C 87.37 287.86 85.17 283.15 84.50 280.48
  Q 82.93 274.24 81.40 265.36
  Q 80.57 260.58 79.00 257.38
  A 1.68 1.42 66.3 0 0 77.13 256.46
  Q 76.49 256.70 75.93 257.77
  C 73.26 262.89 72.29 270.17 71.69 275.80
  Q 68.80 302.89 69.35 331.99
  Q 69.57 343.53 70.44 352.70
  C 71.61 365.03 72.67 374.94 77.13 384.10
  C 84.68 399.59 97.86 409.40 113.75 415.25"
/>
<path stroke="#03d257" vector-effect="non-scaling-stroke" d="
  M 113.75 415.25
  C 98.10 411.91 84.66 399.42 76.84 385.69
  C 72.23 377.59 71.00 368.46 70.15 358.98
  Q 67.98 334.55 68.82 309.69
  Q 69.66 284.93 70.02 265.16
  C 70.12 259.99 71.42 251.16 71.81 243.20
  C 72.06 238.22 72.20 233.27 72.74 227.88
  Q 75.74 198.24 78.71 169.04
  C 79.57 160.67 81.34 150.58 82.35 141.31"
/>
<path stroke="#2ace5b" vector-effect="non-scaling-stroke" d="
  M 264.41 121.31
  Q 249.55 118.57 234.49 121.60
  A 3.30 3.21 41.8 0 1 233.54 121.64
  C 229.74 121.24 225.71 123.34 222.25 124.59"
/>
<path stroke="#79e989" vector-effect="non-scaling-stroke" d="
  M 222.25 124.59
  Q 222.54 123.41 220.11 123.55"
/>
<path stroke="#2ce16d" vector-effect="non-scaling-stroke" d="
  M 92.65 151.43
  Q 93.47 148.29 93.51 147.39
  Q 93.88 139.31 94.50 132.83
  A 0.17 0.01 -82.2 0 0 94.51 132.67
  Q 94.50 132.66 94.45 132.59
  A 0.16 0.14 -63.4 0 0 94.18 132.70
  L 93.36 146.29
  A 0.28 0.27 23.9 0 1 92.89 146.47
  Q 92.14 145.71 92.09 145.80
  A 0.36 0.36 0.0 0 1 91.49 145.84
  Q 90.70 144.82 89.27 145.97
  A 0.16 0.16 0.0 0 0 89.25 146.21
  A 0.27 0.26 -42.8 0 0 89.63 146.22
  Q 90.03 145.84 90.31 145.81
  A 0.70 0.69 -81.1 0 1 91.01 146.78
  Q 89.29 150.81 89.14 155.29"
/>
<path stroke="#2cd85b" vector-effect="non-scaling-stroke" d="
  M 84.46 210.96
  C 84.64 189.74 85.14 173.01 88.47 153.29
  Q 88.82 151.22 88.69 147.41"
/>
<path stroke="#4fd373" vector-effect="non-scaling-stroke" d="
  M 221.38 259.79
  Q 211.26 261.83 203.04 267.51
  C 197.28 271.50 192.21 277.36 187.53 283.28
  Q 186.01 285.21 183.20 290.92
  Q 180.86 295.67 180.91 300.23
  A 0.20 0.20 0.0 0 0 181.26 300.36
  L 182.02 299.47"
/>
<path stroke="#019d45" vector-effect="non-scaling-stroke" d="
  M 181.37 303.27
  L 179.73 309.97"
/>
<path stroke="#2bb35b" vector-effect="non-scaling-stroke" d="
  M 423.16 326.96
  Q 422.80 327.49 423.11 328.29"
/>
<path stroke="#2bb35b" vector-effect="non-scaling-stroke" d="
  M 422.72 330.54
  Q 422.39 331.14 422.55 331.79"
/>
<path stroke="#2bb35b" vector-effect="non-scaling-stroke" d="
  M 422.49 331.96
  Q 421.92 332.58 422.30 333.55"
/>
<path stroke="#2bb35b" vector-effect="non-scaling-stroke" d="
  M 422.21 333.96
  Q 421.81 334.51 422.14 335.06"
/>
<path stroke="#2bb35b" vector-effect="non-scaling-stroke" d="
  M 420.72 346.03
  Q 420.46 346.87 420.55 347.71"
/>
<path stroke="#2bb35b" vector-effect="non-scaling-stroke" d="
  M 420.45 348.46
  Q 419.91 349.02 420.28 350.04"
/>
<path stroke="#2bb35b" vector-effect="non-scaling-stroke" d="
  M 419.19 356.00
  Q 418.78 356.53 419.04 357.22"
/>
<path stroke="#2bb35b" vector-effect="non-scaling-stroke" d="
  M 418.79 358.53
  Q 418.25 359.48 418.64 360.50"
/>
<path stroke="#2bb35b" vector-effect="non-scaling-stroke" d="
  M 416.91 369.02
  L 416.74 369.96"
/>
<path stroke="#2bb35b" vector-effect="non-scaling-stroke" d="
  M 416.74 369.96
  Q 416.16 370.52 416.49 371.78"
/>
<path stroke="#2bb35b" vector-effect="non-scaling-stroke" d="
  M 348.53 441.07
  Q 347.70 441.06 347.45 441.22"
/>
<path stroke="#2bb35b" vector-effect="non-scaling-stroke" d="
  M 346.96 441.35
  L 346.29 441.39"
/>
<path stroke="#30e25a" vector-effect="non-scaling-stroke" d="
  M 338.23 442.11
  L 337.27 442.13"
/>
<path stroke="#30e25a" vector-effect="non-scaling-stroke" d="
  M 332.19 442.34
  L 326.51 442.37"
/>
<path stroke="#2ace5b" vector-effect="non-scaling-stroke" d="
  M 319.74 442.38
  L 315.09 442.31"
/>
<path stroke="#2bb35b" vector-effect="non-scaling-stroke" d="
  M 308.93 442.14
  L 303.76 442.11"
/>
<path stroke="#019d45" vector-effect="non-scaling-stroke" d="
  M 296.90 350.92
  Q 292.42 357.85 289.42 361.16
  Q 285.43 365.54 277.84 371.54
  Q 267.44 379.77 252.55 382.24"
/>
<path stroke="#407383" vector-effect="non-scaling-stroke" d="
  M 197.51 281.72
  Q 184.19 296.83 182.74 316.92"
/>
<path stroke="#236476" vector-effect="non-scaling-stroke" d="
  M 182.74 316.92
  Q 182.42 323.66 183.06 327.00
  C 183.90 331.41 184.47 335.80 186.20 339.86
  Q 189.34 347.22 194.39 354.40
  Q 199.37 361.49 206.12 366.09
  Q 214.75 371.98 223.05 374.95
  Q 235.57 379.43 249.39 377.58"
/>
<path stroke="#355381" vector-effect="non-scaling-stroke" d="
  M 249.39 377.58
  Q 256.34 376.78 263.09 374.07"
/>
<path stroke="#4f5892" vector-effect="non-scaling-stroke" d="
  M 263.09 374.07
  Q 272.79 369.82 279.38 364.38
  Q 284.08 360.49 288.33 353.83"
/>
<path stroke="#355381" vector-effect="non-scaling-stroke" d="
  M 288.33 353.83
  L 294.42 344.15"
/>
<path stroke="#236476" vector-effect="non-scaling-stroke" d="
  M 294.42 344.15
  Q 297.25 339.08 297.79 336.02
  C 298.39 332.60 299.78 328.67 299.92 325.54
  Q 300.47 312.57 297.27 302.97
  Q 296.41 300.38 291.45 289.94
  A 6.10 5.98 -78.1 0 0 290.66 288.70
  Q 288.13 285.66 287.76 284.70
  A 1.60 1.58 12.9 0 0 287.39 284.12
  L 281.36 278.03
  A 0.94 0.48 62.8 0 0 281.22 277.93
  Q 280.16 277.35 278.12 275.33
  Q 277.54 274.75 276.50 274.05
  Q 252.60 257.86 224.43 264.97"
/>
<path stroke="#407383" vector-effect="non-scaling-stroke" d="
  M 224.43 264.97
  Q 217.95 267.08 211.97 270.56"
/>
<path stroke="#019644" vector-effect="non-scaling-stroke" d="
  M 179.57 329.55
  Q 181.16 337.49 182.22 340.27
  Q 183.81 344.41 187.88 351.85
  C 189.69 355.15 191.99 357.84 194.37 360.73"
/>
<path stroke="#00a842" vector-effect="non-scaling-stroke" d="
  M 194.37 360.73
  Q 200.84 379.36 217.82 389.74
  Q 223.03 392.93 230.34 396.92
  A 0.14 0.14 0.0 0 1 230.40 397.10
  A 0.15 0.15 0.0 0 1 230.20 397.18
  C 219.89 393.34 212.43 388.74 200.31 382.01
  Q 199.05 381.31 198.33 381.26
  A 0.54 0.54 0.0 0 0 197.92 382.18
  Q 205.44 389.46 216.29 394.41
  C 238.30 404.44 264.42 405.02 287.36 396.91
  Q 313.85 387.54 325.37 362.87
  C 331.59 349.54 332.02 336.06 326.59 322.56
  Q 319.93 305.99 310.48 288.72
  Q 308.41 284.95 305.08 279.92
  C 300.23 272.60 295.65 266.25 298.39 258.24
  Q 300.21 252.92 303.50 248.14
  C 307.92 241.73 313.36 234.71 316.94 227.86
  Q 331.66 199.72 316.89 171.01
  C 315.01 167.35 312.07 163.07 309.59 159.25"
/>
<path stroke="#8048c8" vector-effect="non-scaling-stroke" d="
  M 268.25 236.50
  Q 270.10 234.45 270.74 231.94"
/>
<path stroke="#6059b4" vector-effect="non-scaling-stroke" d="
  M 251.73 124.08
  Q 255.70 125.23 257.97 127.83
  A 0.03 0.02 -70.2 0 1 257.95 127.87
  Q 257.82 127.87 257.69 127.87
  Q 257.68 127.87 257.67 127.87
  C 257.78 127.88 257.88 127.87 257.98 127.88
  A 0.05 0.05 0.0 0 1 257.99 127.97
  Q 254.16 129.16 249.81 128.94"
/>
<path stroke="#8d4dd0" vector-effect="non-scaling-stroke" d="
  M 249.81 128.94
  Q 236.92 129.25 225.91 135.42
  A 0.96 0.62 -57.1 0 1 225.71 135.51
  L 223.06 136.34
  A 2.83 2.77 -72.1 0 0 222.18 136.80
  Q 213.71 143.47 211.60 145.60
  Q 206.85 150.41 201.23 159.39"
/>
<path stroke="#6059b4" vector-effect="non-scaling-stroke" d="
  M 201.23 159.39
  Q 201.06 158.29 200.05 157.52"
/>
<path stroke="#adb2cc" vector-effect="non-scaling-stroke" d="
  M 200.05 157.52
  Q 210.27 140.54 228.09 131.79
  A 0.42 0.42 0.0 0 0 228.22 131.14
  L 228.13 131.05
  A 0.67 0.65 57.7 0 0 227.37 130.87
  Q 207.45 139.13 198.41 158.20
  Q 197.34 160.48 198.46 160.41"
/>
<path stroke="#6059b4" vector-effect="non-scaling-stroke" d="
  M 198.46 160.41
  Q 198.03 163.35 196.80 166.13
  A 0.49 0.49 0.0 0 1 195.88 165.82
  L 197.12 160.44
  A 0.24 0.23 -74.0 0 0 196.98 160.17
  L 196.97 160.17
  A 0.22 0.21 15.7 0 0 196.71 160.31
  Q 195.77 163.27 193.44 165.30"
/>
<path stroke="#5639b2" vector-effect="non-scaling-stroke" d="
  M 303.24 206.20
  C 304.24 198.98 303.19 191.75 303.48 184.76
  C 304.30 165.08 296.85 150.53 281.62 138.38
  Q 278.02 135.50 273.42 133.92"
/>
<path stroke="#6339bc" vector-effect="non-scaling-stroke" d="
  M 273.42 133.92
  Q 262.60 128.44 250.00 129.05"
/>
<path stroke="#703ec3" vector-effect="non-scaling-stroke" d="
  M 250.00 129.05
  Q 249.90 128.99 249.81 128.94"
/>
<path stroke="#7628c7" vector-effect="non-scaling-stroke" d="
  M 299.15 213.34
  C 296.48 202.49 286.29 202.87 279.40 209.62
  Q 276.17 212.78 271.86 215.78
  Q 267.27 218.97 268.48 223.62
  Q 269.57 227.80 270.74 231.94"
/>
<path stroke="#7348bf" vector-effect="non-scaling-stroke" d="
  M 270.74 231.94
  L 268.14 233.03"
/>
<path stroke="#5639b2" vector-effect="non-scaling-stroke" d="
  M 268.14 233.03
  Q 264.23 234.78 262.46 234.48
  Q 255.42 233.29 249.63 233.16
  Q 241.98 233.00 238.54 232.08
  C 228.56 229.42 220.52 224.32 212.72 217.76
  A 0.28 0.27 -48.8 0 0 212.34 217.79
  L 212.31 217.82
  A 0.26 0.26 0.0 0 0 212.33 218.18
  Q 219.46 224.76 228.10 229.38
  A 0.03 0.02 50.4 0 1 228.11 229.43
  Q 228.08 229.42 228.06 229.41
  Q 218.32 225.92 211.57 218.45
  Q 203.23 209.22 198.92 195.69"
/>
<path stroke="#6059b4" vector-effect="non-scaling-stroke" d="
  M 268.14 233.03
  Q 267.52 234.84 267.97 236.61"
/>
<path stroke="#227675" vector-effect="non-scaling-stroke" d="
  M 267.97 236.61
  L 263.98 237.85"
/>
<path stroke="#019144" vector-effect="non-scaling-stroke" d="
  M 194.37 360.73
  C 205.59 372.73 222.20 382.45 239.17 382.39
  Q 245.75 382.37 252.55 382.24"
/>
<path stroke="#00b043" vector-effect="non-scaling-stroke" d="
  M 252.55 382.24
  Q 250.61 382.56 249.56 383.38
  A 0.47 0.46 -60.6 0 0 249.79 384.21
  C 258.81 385.22 263.76 382.90 272.14 378.78
  C 282.96 373.46 294.01 361.66 299.65 350.70
  A 0.38 0.38 0.0 0 0 299.34 350.15
  Q 298.12 350.04 296.90 350.92"
/>
<path stroke="#019144" vector-effect="non-scaling-stroke" d="
  M 296.90 350.92
  C 298.56 347.09 300.72 343.11 301.71 339.32
  Q 305.66 324.08 303.30 307.28
  C 302.13 298.94 297.12 289.84 291.94 283.59
  Q 290.24 281.54 283.58 274.91
  Q 279.05 270.39 273.98 267.77
  C 264.40 262.81 256.32 260.30 245.88 260.08
  C 230.52 259.77 218.92 260.47 208.24 270.80
  A 0.30 0.30 0.0 0 0 208.60 271.27
  L 211.25 269.74
  A 0.25 0.25 0.0 0 1 211.60 270.07
  Q 211.32 270.61 211.97 270.56"
/>
<path stroke="#3f8681" vector-effect="non-scaling-stroke" d="
  M 211.97 270.56
  Q 203.62 275.02 197.51 281.72"
/>
<path stroke="#019144" vector-effect="non-scaling-stroke" d="
  M 197.51 281.72
  C 192.73 285.29 190.58 289.22 187.63 294.18
  C 185.88 297.11 183.20 300.00 181.37 303.27"
/>
<path stroke="#00b043" vector-effect="non-scaling-stroke" d="
  M 181.37 303.27
  L 182.02 299.47"
/>
<path stroke="#4fc772" vector-effect="non-scaling-stroke" d="
  M 182.02 299.47
  L 187.59 287.64
  A 1.18 1.13 -10.2 0 1 187.88 287.24
  Q 189.98 285.28 191.47 282.29
  A 2.20 2.17 -7.2 0 1 192.06 281.54
  C 194.91 279.16 197.62 275.24 200.78 272.59
  Q 209.89 264.95 221.38 259.79"
/>
<path stroke="#00b043" vector-effect="non-scaling-stroke" d="
  M 221.38 259.79
  L 227.97 257.53
  A 0.30 0.30 0.0 0 0 228.09 257.05
  Q 217.71 245.39 211.01 231.25"
/>
<path stroke="#3f8681" vector-effect="non-scaling-stroke" d="
  M 267.97 236.61
  Q 268.11 236.55 268.25 236.50"
/>
<path stroke="#426689" vector-effect="non-scaling-stroke" d="
  M 268.25 236.50
  Q 274.02 235.09 278.94 232.07"
/>
<path stroke="#5639b2" vector-effect="non-scaling-stroke" d="
  M 294.42 344.15
  Q 292.86 338.76 293.27 336.27
  C 294.69 327.64 295.29 317.60 293.36 309.10
  C 291.76 302.02 287.84 294.91 283.71 288.29
  C 279.95 282.24 274.45 278.40 268.76 274.07
  Q 265.13 271.31 260.01 269.55
  Q 249.58 265.99 238.41 266.33"
/>
<path stroke="#6059b4" vector-effect="non-scaling-stroke" d="
  M 238.41 266.33
  Q 232.16 264.56 224.43 264.97"
/>
<path stroke="#822dce" vector-effect="non-scaling-stroke" d="
  M 288.33 353.83
  Q 281.95 345.64 271.63 348.21
  C 265.26 349.80 264.47 358.40 258.98 361.80
  Q 252.95 365.54 249.01 369.16
  A 0.51 0.51 0.0 0 0 249.09 369.97
  Q 250.23 370.66 251.27 371.63
  C 253.97 374.15 259.53 374.47 263.09 374.07"
/>
<path stroke="#5639b2" vector-effect="non-scaling-stroke" d="
  M 249.39 377.58
  Q 244.23 374.53 238.43 373.44
  Q 232.96 372.40 231.37 371.78
  Q 224.89 369.25 216.95 365.46
  C 204.37 359.45 196.16 349.21 191.15 336.40
  Q 188.91 330.69 188.43 325.95"
/>
<path stroke="#7628c7" vector-effect="non-scaling-stroke" d="
  M 188.43 325.95
  C 199.54 337.90 212.23 346.96 228.66 344.96
  C 249.63 342.41 264.42 326.05 266.91 304.73
  C 268.69 289.56 263.16 275.68 247.71 271.08
  Q 239.94 268.78 231.67 267.91"
/>
<path stroke="#7348bf" vector-effect="non-scaling-stroke" d="
  M 238.41 266.33
  L 231.67 267.91"
/>
<path stroke="#8048c8" vector-effect="non-scaling-stroke" d="
  M 231.67 267.91
  L 226.20 269.50"
/>
<path stroke="#8d4dd0" vector-effect="non-scaling-stroke" d="
  M 226.20 269.50
  C 214.57 274.60 204.54 281.01 197.02 291.52
  Q 194.28 295.36 190.28 304.61"
/>
<path stroke="#6059b4" vector-effect="non-scaling-stroke" d="
  M 190.28 304.61
  C 189.31 308.49 188.52 311.45 185.37 313.27
  A 1.63 1.61 81.6 0 0 184.61 314.30
  L 183.95 317.16
  A 0.41 0.41 0.0 0 1 183.28 317.38
  L 182.74 316.92"
/>
<path stroke="#902dd8" vector-effect="non-scaling-stroke" d="
  M 250.00 129.05
  C 260.42 137.07 269.17 147.77 263.55 161.14
  C 260.49 168.41 254.12 173.11 247.28 177.80
  Q 237.91 184.23 227.58 186.91
  C 216.16 189.87 206.18 185.31 197.20 178.19"
/>
<path stroke="#703ec3" vector-effect="non-scaling-stroke" d="
  M 197.20 178.19
  Q 197.64 168.32 201.23 159.39"
/>
<path stroke="#90a2c0" vector-effect="non-scaling-stroke" d="
  M 200.05 157.52
  L 198.46 160.41"
/>
<path stroke="#7628c7" vector-effect="non-scaling-stroke" d="
  M 273.42 133.92
  C 276.60 145.64 279.55 158.33 276.39 170.55
  C 272.81 184.34 258.78 195.38 245.39 200.52
  Q 229.99 206.44 214.54 201.16
  Q 206.77 198.51 198.92 195.69"
/>
<path stroke="#6339bc" vector-effect="non-scaling-stroke" d="
  M 198.92 195.69
  Q 196.62 187.18 197.20 178.19"
/>
<path stroke="#703ec3" vector-effect="non-scaling-stroke" d="
  M 190.31 306.35
  Q 190.15 305.49 190.28 304.61"
/>
<path stroke="#6339bc" vector-effect="non-scaling-stroke" d="
  M 188.43 325.95
  Q 186.94 316.17 190.31 306.35"
/>
<path stroke="#902dd8" vector-effect="non-scaling-stroke" d="
  M 190.31 306.35
  C 194.58 314.77 199.90 322.04 209.56 324.56
  C 223.87 328.30 243.29 318.81 248.28 303.86
  C 253.73 287.54 240.03 276.44 226.20 269.50"
/>
<path stroke="#55e373" vector-effect="non-scaling-stroke" d="
  M 244.67 71.11
  A 0.40 0.39 -43.1 0 0 244.71 70.36
  Q 244.35 70.24 243.99 70.35
  A 0.41 0.37 45.4 0 0 244.02 71.08
  Q 244.32 71.21 244.67 71.11"
/>
<path stroke="#74ec8e" vector-effect="non-scaling-stroke" d="
  M 245.6073 76.0437
  A 1.83 1.08 -27.9 0 0 243.4846 75.9455
  A 1.83 1.08 -27.9 0 0 242.3727 77.7563
  A 1.83 1.08 -27.9 0 0 244.4954 77.8545
  A 1.83 1.08 -27.9 0 0 245.6073 76.0437"
/>
<path stroke="#55e373" vector-effect="non-scaling-stroke" d="
  M 180.7812 110.9616
  A 1.60 1.16 -36.8 0 0 178.8051 110.9912
  A 1.60 1.16 -36.8 0 0 178.2188 112.8784
  A 1.60 1.16 -36.8 0 0 180.1949 112.8488
  A 1.60 1.16 -36.8 0 0 180.7812 110.9616"
/>
<path stroke="#30e25a" vector-effect="non-scaling-stroke" d="
  M 263.9127 113.0373
  A 0.97 0.81 -175.7 0 0 264.8193 113.9177
  A 0.97 0.81 -175.7 0 0 265.8473 113.1827
  A 0.97 0.81 -175.7 0 0 264.9407 112.3023
  A 0.97 0.81 -175.7 0 0 263.9127 113.0373"
/>
<path stroke="#74ec8e" vector-effect="non-scaling-stroke" d="
  M 131.6187 126.6994
  A 1.90 1.27 -35.4 0 0 129.3343 126.7648
  A 1.90 1.27 -35.4 0 0 128.5213 128.9006
  A 1.90 1.27 -35.4 0 0 130.8057 128.8352
  A 1.90 1.27 -35.4 0 0 131.6187 126.6994"
/>
<path stroke="#55e373" vector-effect="non-scaling-stroke" d="
  M 168.8522 185.9088
  A 0.89 0.59 -33.5 0 0 167.7844 185.9080
  A 0.89 0.59 -33.5 0 0 167.3678 186.8912
  A 0.89 0.59 -33.5 0 0 168.4356 186.8920
  A 0.89 0.59 -33.5 0 0 168.8522 185.9088"
/>
<path stroke="#6edc8e" vector-effect="non-scaling-stroke" d="
  M 362.2637 100.9672
  A 1.20 0.88 -34.1 0 0 360.7766 100.9113
  A 1.20 0.88 -34.1 0 0 360.2763 102.3128
  A 1.20 0.88 -34.1 0 0 361.7634 102.3687
  A 1.20 0.88 -34.1 0 0 362.2637 100.9672"
/>
<path stroke="#79e989" vector-effect="non-scaling-stroke" d="
  M 140.69 77.16
  Q 138.16 76.70 135.82 77.35
  C 125.65 80.19 114.54 85.62 108.17 94.14
  Q 102.58 101.59 100.13 109.13
  C 96.74 119.55 94.25 133.00 94.32 144.29
  A 1.72 1.70 -60.0 0 0 94.54 145.13
  Q 95.32 146.50 95.85 146.80
  A 1.87 1.86 -57.3 0 0 98.28 146.26
  C 100.36 143.37 101.56 139.73 102.52 135.68
  Q 104.91 125.56 108.93 116.08
  A 2.39 2.30 81.3 0 1 109.50 115.27
  Q 121.20 104.37 134.39 96.13
  A 1.38 1.35 32.8 0 1 135.33 95.94
  Q 137.54 96.29 138.66 94.47
  A 1.67 1.66 -86.2 0 1 139.40 93.82
  Q 163.26 82.86 189.57 80.44
  A 1.62 1.61 55.0 0 1 190.41 80.59
  Q 191.97 81.31 192.90 80.69
  Q 194.78 79.42 196.97 77.92"
/>
<path stroke="#98f1a4" vector-effect="non-scaling-stroke" d="
  M 196.97 77.92
  Q 195.12 76.56 193.75 76.50
  Q 177.56 75.78 147.91 76.23
  Q 144.04 76.29 140.69 77.16"
/>
<path stroke="#bdf3bd" vector-effect="non-scaling-stroke" d="
  M 196.97 77.92
  Q 183.22 78.47 167.29 80.35
  Q 151.75 82.18 138.65 87.68
  C 135.17 89.15 129.82 92.13 127.46 93.66
  Q 124.49 95.59 119.24 97.97
  Q 113.95 100.36 110.98 102.26
  Q 109.69 103.09 107.42 102.67
  A 1.19 1.19 0.0 0 1 106.47 101.23
  L 107.62 96.21
  A 2.26 2.06 -23.9 0 1 107.95 95.46
  Q 109.04 93.84 109.99 93.00
  Q 114.24 89.21 116.84 86.91
  A 4.73 4.69 -80.2 0 1 117.71 86.29
  Q 128.39 80.21 140.69 77.16"
/>
<path stroke="#98f1a4" vector-effect="non-scaling-stroke" d="
  M 148.11 77.89
  Q 147.66 78.24 147.05 79.31
  A 1.16 1.16 0.0 0 0 147.81 81.02
  Q 150.34 81.57 152.56 80.45
  A 1.02 1.02 0.0 0 0 152.62 78.66
  L 150.71 77.54
  A 2.15 2.14 -52.5 0 0 148.11 77.89"
/>
<path stroke="#bdf3bd" vector-effect="non-scaling-stroke" d="
  M 139.68 83.53
  L 142.95 80.92
  A 0.17 0.17 0.0 0 0 142.98 80.69
  L 142.92 80.62
  A 2.14 1.40 -38.6 0 0 140.38 80.86
  L 140.19 81.01
  A 2.14 1.40 -38.6 0 0 139.39 83.44
  L 139.45 83.51
  A 0.17 0.17 0.0 0 0 139.68 83.53"
/>
<path stroke="#bdf3bd" vector-effect="non-scaling-stroke" d="
  M 101.74 114.36
  Q 106.03 111.35 106.35 106.02
  A 1.15 1.13 26.0 0 0 106.05 105.18
  Q 104.82 103.82 103.89 103.90
  A 1.32 1.30 14.2 0 0 102.90 104.48
  Q 99.91 109.00 100.39 113.74
  A 0.86 0.86 0.0 0 0 101.74 114.36"
/>
<path stroke="#50da73" vector-effect="non-scaling-stroke" d="
  M 334.92 92.57
  A 0.58 0.58 0.0 0 0 334.34 91.99
  A 0.58 0.58 0.0 0 0 333.76 92.57
  A 0.58 0.58 0.0 0 0 334.34 93.15
  A 0.58 0.58 0.0 0 0 334.92 92.57"
/>
<path stroke="#50da73" vector-effect="non-scaling-stroke" d="
  M 303.95 108.74
  A 1.00 1.00 0.0 0 0 302.95 107.74
  A 1.00 1.00 0.0 0 0 301.95 108.74
  A 1.00 1.00 0.0 0 0 302.95 109.74
  A 1.00 1.00 0.0 0 0 303.95 108.74"
/>
<path stroke="#00ac44" vector-effect="non-scaling-stroke" d="
  M 413.29 147.98
  Q 411.88 150.92 411.70 152.16
  Q 410.74 158.75 406.89 181.96
  C 403.01 205.38 404.68 227.86 407.17 251.90
  C 407.46 254.74 407.93 260.29 409.33 262.68
  A 1.06 1.06 0.0 0 0 411.21 262.58
  Q 413.44 257.69 414.93 247.90
  Q 418.40 225.20 419.26 198.04
  C 419.73 182.92 419.47 167.64 416.32 153.21
  Q 415.62 150.00 414.19 147.91
  A 0.52 0.52 0.0 0 0 413.29 147.98"
/>
<path stroke="#2ace5b" vector-effect="non-scaling-stroke" d="
  M 114.59 365.97
  Q 114.90 365.87 115.04 365.69
  A 0.38 0.34 14.9 0 0 114.68 365.15
  Q 114.36 365.16 114.21 365.48
  A 0.35 0.33 -84.3 0 0 114.59 365.97"
/>
<path stroke="#2cd85b" vector-effect="non-scaling-stroke" d="
  M 96.94 264.42
  A 0.53 0.53 0.0 0 0 96.41 263.89
  A 0.53 0.53 0.0 0 0 95.88 264.42
  A 0.53 0.53 0.0 0 0 96.41 264.95
  A 0.53 0.53 0.0 0 0 96.94 264.42"
/>
<path stroke="#b36fee" vector-effect="non-scaling-stroke" d="
  M 220.53 161.52
  L 225.90 155.22"
/>
<path stroke="#a94fed" vector-effect="non-scaling-stroke" d="
  M 225.90 155.22
  Q 229.56 152.36 233.00 149.50
  C 236.62 146.48 238.15 141.34 232.83 138.96
  C 228.48 137.00 222.96 140.04 219.92 143.22
  C 216.46 146.84 210.48 154.11 209.96 158.77
  Q 209.73 160.73 210.51 161.50
  Q 216.31 167.27 220.53 161.52"
/>
<path stroke="#c08bfc" vector-effect="non-scaling-stroke" d="
  M 225.90 155.22
  Q 226.91 152.47 226.69 149.75
  A 1.71 1.68 24.7 0 0 226.36 148.88
  Q 225.25 147.36 223.73 146.35
  A 1.15 1.14 -38.6 0 0 222.71 146.24
  Q 217.45 148.26 214.51 151.96
  A 0.70 0.68 -24.5 0 0 214.35 152.37
  L 214.04 160.22
  A 1.62 1.61 -83.0 0 0 215.32 161.86
  Q 217.57 162.34 220.53 161.52"
/>
<path stroke="#2aca59" vector-effect="non-scaling-stroke" d="
  M 366.93 181.42
  Q 366.95 182.09 367.16 182.32
  A 0.56 0.54 -70.6 0 0 368.10 181.85
  Q 368.03 181.29 367.96 181.15
  A 0.55 0.55 0.0 0 0 366.93 181.42"
/>
<path stroke="#4fd373" vector-effect="non-scaling-stroke" d="
  M 137.8085 294.5046
  A 1.18 0.85 -54.9 0 0 136.4346 294.9812
  A 1.18 0.85 -54.9 0 0 136.4515 296.4354
  A 1.18 0.85 -54.9 0 0 137.8254 295.9588
  A 1.18 0.85 -54.9 0 0 137.8085 294.5046"
/>
<path stroke="#a48adf" vector-effect="non-scaling-stroke" d="
  M 191.15 296.70
  L 198.33 286.25
  A 1.54 1.21 -11.7 0 1 198.49 286.06
  Q 208.59 275.66 221.00 269.52
  A 0.45 0.44 -27.7 0 0 221.20 268.91
  L 221.18 268.89
  A 0.48 0.47 63.7 0 0 220.58 268.68
  Q 211.75 272.53 203.86 278.76
  Q 198.71 282.83 196.17 286.69
  Q 192.76 291.88 190.76 296.49
  A 0.22 0.22 0.0 0 0 191.15 296.70"
/>
<path stroke="#b36fee" vector-effect="non-scaling-stroke" d="
  M 216.06 296.68
  L 220.32 291.02"
/>
<path stroke="#a94fed" vector-effect="non-scaling-stroke" d="
  M 220.32 291.02
  Q 222.63 289.76 224.23 287.73
  C 227.92 283.06 224.50 277.27 218.51 279.05
  C 215.31 280.00 212.68 281.24 210.27 283.68
  C 206.36 287.64 201.56 294.12 201.94 299.99
  A 1.09 1.08 -74.4 0 0 202.40 300.82
  Q 206.36 303.60 211.36 303.04
  A 1.01 1.00 13.3 0 0 212.10 302.59
  L 216.06 296.68"
/>
<path stroke="#c08bfc" vector-effect="non-scaling-stroke" d="
  M 220.32 291.02
  L 220.42 283.37
  A 1.22 1.21 86.2 0 0 219.03 282.15
  C 211.75 283.25 204.42 289.66 205.10 297.61
  A 1.42 1.41 -1.1 0 0 206.46 298.91
  Q 211.92 299.09 216.06 296.68"
/>
</g>
<path fill="#08d592" d="
  M 244.00 63.90
  L 244.97 63.84
  Q 256.38 64.44 267.78 65.66
  C 270.36 65.94 273.62 65.86 276.40 66.14
  Q 313.98 69.96 346.08 74.42
  C 360.15 76.38 375.72 79.08 389.39 84.09
  Q 393.42 85.57 399.25 88.92
  Q 396.01 89.93 393.20 89.53
  Q 377.09 82.66 364.97 80.53
  Q 356.86 79.11 356.68 79.07
  C 348.98 77.30 341.26 76.89 333.54 75.46
  C 326.59 74.17 319.69 73.51 312.71 72.72
  C 309.15 72.61 305.39 71.51 302.27 71.53
  C 297.06 71.58 292.82 70.15 287.97 70.08
  Q 281.22 69.98 271.70 68.89
  Q 268.61 68.54 252.22 67.54
  C 248.91 67.34 245.35 66.46 242.25 66.35
  Q 208.96 65.15 174.84 65.81
  C 160.82 66.09 154.70 67.08 139.05 69.19
  Q 112.67 72.76 97.49 93.65
  C 95.11 96.91 93.25 100.91 91.43 104.71
  Q 86.10 114.98 83.98 126.30
  C 81.46 139.85 80.74 147.06 77.72 158.73
  Q 76.39 163.84 75.05 173.23
  Q 74.57 176.61 72.24 179.48
  Q 72.16 178.80 72.35 178.22
  Q 72.69 177.79 72.49 177.04
  L 73.51 167.80
  Q 73.92 167.36 73.68 166.46
  Q 73.60 165.70 73.82 165.04
  Q 74.12 164.44 74.00 163.54
  L 77.55 138.77
  L 77.72 137.50
  Q 77.99 136.99 77.85 136.28
  Q 78.76 132.15 79.32 127.95
  C 79.72 124.92 80.58 122.34 81.35 119.46
  Q 81.81 118.91 81.67 117.73
  C 87.53 93.93 103.30 74.84 127.34 68.05
  Q 127.98 67.93 128.21 67.71
  Q 145.80 63.42 164.05 62.75
  L 165.75 62.59
  L 172.54 62.13
  Q 173.59 62.24 174.49 61.98
  Q 195.95 61.79 202.25 61.95
  Q 213.96 62.25 244.00 63.90
  Z"
/>
<path fill="#027e45" d="
  M 174.49 61.98
  Q 173.59 62.24 172.54 62.13
  L 174.49 61.98
  Z"
/>
<path fill="#00a342" d="
  M 165.75 62.59
  L 164.05 62.75
  Q 164.79 62.52 165.75 62.59
  Z"
/>
<path fill="#00b446" d="
  M 244.97 63.84
  L 244.00 63.90
  L 244.97 63.84
  Z"
/>
<path fill="#0cdc44" d="
  M 312.71 72.72
  C 309.67 72.56 304.31 72.29 303.30 75.93
  Q 302.78 75.94 302.50 76.16
  Q 302.14 76.44 302.30 76.92
  Q 302.53 77.65 303.71 77.62
  Q 305.11 79.38 307.81 79.95
  L 302.54 79.95
  A 1.80 1.80 0.0 0 0 301.66 80.18
  C 299.25 81.59 292.62 85.76 294.60 88.87
  Q 295.90 90.92 297.25 92.81
  C 300.86 97.88 295.13 102.82 290.82 105.73
  Q 280.90 112.41 271.02 119.21
  Q 247.65 110.78 224.73 121.01
  Q 223.14 121.72 220.11 123.55
  Q 207.47 129.48 199.84 137.85
  Q 193.05 145.30 187.33 160.05
  A 1.30 1.28 -50.2 0 0 187.42 161.14
  L 187.75 161.72
  A 0.42 0.42 0.0 0 0 188.47 161.72
  L 199.18 143.49
  C 195.74 150.37 191.35 157.82 189.43 164.53
  Q 187.65 170.74 187.36 177.31
  L 187.64 187.08
  Q 161.27 198.48 145.72 203.77
  Q 130.15 209.06 116.89 210.01
  Q 110.51 210.47 103.94 211.41
  A 0.49 0.49 0.0 0 1 103.38 210.92
  Q 103.39 210.71 103.49 210.54
  A 0.18 0.15 -7.6 0 1 103.56 210.46
  L 110.81 205.98
  A 1.06 1.06 0.0 0 0 111.27 204.79
  Q 110.10 200.65 109.38 200.00
  Q 106.22 197.16 103.53 200.77
  Q 100.75 196.38 99.01 203.80
  Q 97.69 204.72 97.52 205.96
  Q 97.37 207.00 98.57 208.24
  Q 102.03 211.81 100.69 216.86
  Q 98.69 224.35 97.79 226.07
  Q 92.21 236.67 88.62 247.05
  C 87.65 249.83 85.98 252.77 84.69 254.78
  A 0.59 0.59 0.0 0 1 83.61 254.51
  Q 83.47 252.76 83.78 248.78
  Q 85.27 229.88 84.46 210.96
  Q 85.04 203.17 85.09 200.90
  Q 85.50 179.70 86.45 170.26
  Q 87.41 160.58 89.14 155.29
  Q 87.50 162.81 87.14 170.47
  Q 85.77 199.19 85.04 225.09
  A 0.32 0.32 0.0 0 0 85.35 225.42
  L 85.37 225.42
  A 0.32 0.32 0.0 0 0 85.70 225.11
  Q 87.46 191.76 89.10 167.73
  Q 89.66 159.52 92.65 151.43
  L 91.72 160.23
  Q 89.90 169.91 89.18 179.76
  Q 89.16 179.98 89.37 180.00
  A 0.15 0.14 -80.5 0 0 89.52 179.89
  Q 91.39 170.17 91.72 160.23
  L 90.75 185.98
  A 0.52 0.52 0.0 0 0 91.52 186.45
  L 92.21 186.05
  A 0.75 0.71 -5.8 0 0 92.52 185.69
  Q 93.97 181.97 94.51 179.49
  Q 97.98 163.45 99.40 156.80
  A 2.35 2.33 -18.2 0 1 99.94 155.74
  Q 102.54 152.83 121.35 129.09
  C 136.56 109.88 156.44 99.51 179.82 93.24
  Q 208.92 85.43 238.82 81.26
  A 0.45 0.45 0.0 0 0 239.21 80.84
  L 239.48 73.90
  A 0.14 0.13 4.2 0 0 239.35 73.76
  Q 204.33 72.65 171.72 72.40
  Q 162.48 72.33 144.70 73.04
  C 122.89 73.90 103.47 86.60 96.75 107.69
  C 93.94 116.51 93.28 123.16 92.00 133.94
  Q 91.17 140.91 88.69 147.41
  Q 88.79 138.46 89.63 133.51
  C 91.87 120.21 93.06 112.00 93.62 104.31
  A 0.20 0.20 0.0 0 0 93.24 104.21
  C 87.81 115.77 85.39 128.64 82.35 141.31
  C 83.83 127.99 86.68 117.41 91.43 104.71
  C 93.25 100.91 95.11 96.91 97.49 93.65
  Q 112.67 72.76 139.05 69.19
  C 154.70 67.08 160.82 66.09 174.84 65.81
  Q 208.96 65.15 242.25 66.35
  C 245.35 66.46 248.91 67.34 252.22 67.54
  Q 268.61 68.54 271.70 68.89
  Q 281.22 69.98 287.97 70.08
  C 292.82 70.15 297.06 71.58 302.27 71.53
  C 305.39 71.51 309.15 72.61 312.71 72.72
  Z
  M 244.67 71.11
  A 0.40 0.39 -43.1 0 0 244.71 70.36
  Q 244.35 70.24 243.99 70.35
  A 0.41 0.37 45.4 0 0 244.02 71.08
  Q 244.32 71.21 244.67 71.11
  Z
  M 245.6073 76.0437
  A 1.83 1.08 -27.9 0 0 243.4846 75.9455
  A 1.83 1.08 -27.9 0 0 242.3727 77.7563
  A 1.83 1.08 -27.9 0 0 244.4954 77.8545
  A 1.83 1.08 -27.9 0 0 245.6073 76.0437
  Z
  M 180.7812 110.9616
  A 1.60 1.16 -36.8 0 0 178.8051 110.9912
  A 1.60 1.16 -36.8 0 0 178.2188 112.8784
  A 1.60 1.16 -36.8 0 0 180.1949 112.8488
  A 1.60 1.16 -36.8 0 0 180.7812 110.9616
  Z
  M 263.9127 113.0373
  A 0.97 0.81 -175.7 0 0 264.8193 113.9177
  A 0.97 0.81 -175.7 0 0 265.8473 113.1827
  A 0.97 0.81 -175.7 0 0 264.9407 112.3023
  A 0.97 0.81 -175.7 0 0 263.9127 113.0373
  Z
  M 131.6187 126.6994
  A 1.90 1.27 -35.4 0 0 129.3343 126.7648
  A 1.90 1.27 -35.4 0 0 128.5213 128.9006
  A 1.90 1.27 -35.4 0 0 130.8057 128.8352
  A 1.90 1.27 -35.4 0 0 131.6187 126.6994
  Z
  M 168.8522 185.9088
  A 0.89 0.59 -33.5 0 0 167.7844 185.9080
  A 0.89 0.59 -33.5 0 0 167.3678 186.8912
  A 0.89 0.59 -33.5 0 0 168.4356 186.8920
  A 0.89 0.59 -33.5 0 0 168.8522 185.9088
  Z"
/>
<path fill="#027e45" d="
  M 128.21 67.71
  Q 127.98 67.93 127.34 68.05
  Q 127.56 67.86 128.21 67.71
  Z"
/>
<path fill="#9deaa1" d="
  M 244.67 71.11
  Q 244.32 71.21 244.02 71.08
  A 0.41 0.37 45.4 0 1 243.99 70.35
  Q 244.35 70.24 244.71 70.36
  A 0.40 0.39 -43.1 0 1 244.67 71.11
  Z"
/>
<path fill="#00bc44" d="
  M 312.71 72.72
  C 319.69 73.51 326.59 74.17 333.54 75.46
  C 341.26 76.89 348.98 77.30 356.68 79.07
  Q 356.86 79.11 364.97 80.53
  Q 377.09 82.66 393.20 89.53
  Q 395.92 91.45 398.66 93.12
  Q 402.30 95.33 403.95 96.90
  Q 413.37 105.88 419.23 117.60
  C 421.19 121.52 422.08 125.97 423.53 130.29
  Q 424.80 134.10 425.58 140.13
  Q 427.86 157.70 428.17 171.11
  Q 428.89 203.06 426.12 241.78
  Q 423.95 267.53 420.32 284.77
  Q 412.22 323.20 409.98 334.83
  Q 406.14 354.72 398.46 373.42
  Q 394.06 384.13 386.04 391.94
  Q 393.17 376.98 397.04 360.54
  Q 405.15 340.69 409.81 315.36
  C 418.55 267.77 424.16 225.52 423.68 179.10
  Q 423.49 160.35 419.54 142.99
  C 416.97 131.69 407.40 109.02 393.60 107.31
  A 0.23 0.22 70.1 0 0 393.42 107.70
  Q 405.22 118.73 409.19 134.39
  A 0.83 0.82 -31.9 0 1 409.01 135.14
  Q 404.91 139.80 399.49 136.54
  C 395.04 133.87 390.63 128.95 384.05 129.56
  C 381.42 129.80 377.60 132.07 375.70 133.64
  Q 365.84 141.79 363.86 143.17
  Q 351.66 151.74 336.78 150.61
  C 324.27 149.66 312.38 146.47 300.43 143.30
  L 295.00 137.65
  L 283.83 130.03
  C 303.48 127.75 324.93 121.95 336.51 104.31
  Q 341.73 96.36 348.19 85.66
  A 0.31 0.31 0.0 0 0 347.98 85.20
  Q 328.04 81.62 307.81 79.95
  Q 305.11 79.38 303.71 77.62
  Q 304.48 76.83 303.30 75.93
  C 304.31 72.29 309.67 72.56 312.71 72.72
  Z
  M 362.2637 100.9672
  A 1.20 0.88 -34.1 0 0 360.7766 100.9113
  A 1.20 0.88 -34.1 0 0 360.2763 102.3128
  A 1.20 0.88 -34.1 0 0 361.7634 102.3687
  A 1.20 0.88 -34.1 0 0 362.2637 100.9672
  Z"
/>
<path fill="#54e770" d="
  M 91.72 160.23
  L 92.65 151.43
  Q 93.47 148.29 93.51 147.39
  Q 93.88 139.31 94.50 132.83
  A 0.17 0.01 -82.2 0 0 94.51 132.67
  Q 94.50 132.66 94.45 132.59
  A 0.16 0.14 -63.4 0 0 94.18 132.70
  L 93.36 146.29
  A 0.28 0.27 23.9 0 1 92.89 146.47
  Q 92.14 145.71 92.09 145.80
  A 0.36 0.36 0.0 0 1 91.49 145.84
  Q 90.70 144.82 89.27 145.97
  A 0.16 0.16 0.0 0 0 89.25 146.21
  A 0.27 0.26 -42.8 0 0 89.63 146.22
  Q 90.03 145.84 90.31 145.81
  A 0.70 0.69 -81.1 0 1 91.01 146.78
  Q 89.29 150.81 89.14 155.29
  Q 87.41 160.58 86.45 170.26
  Q 85.50 179.70 85.09 200.90
  Q 85.04 203.17 84.46 210.96
  C 84.64 189.74 85.14 173.01 88.47 153.29
  Q 88.82 151.22 88.69 147.41
  Q 91.17 140.91 92.00 133.94
  C 93.28 123.16 93.94 116.51 96.75 107.69
  C 103.47 86.60 122.89 73.90 144.70 73.04
  Q 162.48 72.33 171.72 72.40
  Q 204.33 72.65 239.35 73.76
  A 0.14 0.13 4.2 0 1 239.48 73.90
  L 239.21 80.84
  A 0.45 0.45 0.0 0 1 238.82 81.26
  Q 208.92 85.43 179.82 93.24
  C 156.44 99.51 136.56 109.88 121.35 129.09
  Q 102.54 152.83 99.94 155.74
  A 2.35 2.33 -18.2 0 0 99.40 156.80
  Q 97.98 163.45 94.51 179.49
  Q 93.97 181.97 92.52 185.69
  A 0.75 0.71 -5.8 0 1 92.21 186.05
  L 91.52 186.45
  A 0.52 0.52 0.0 0 1 90.75 185.98
  L 91.72 160.23
  Z
  M 140.69 77.16
  Q 138.16 76.70 135.82 77.35
  C 125.65 80.19 114.54 85.62 108.17 94.14
  Q 102.58 101.59 100.13 109.13
  C 96.74 119.55 94.25 133.00 94.32 144.29
  A 1.72 1.70 -60.0 0 0 94.54 145.13
  Q 95.32 146.50 95.85 146.80
  A 1.87 1.86 -57.3 0 0 98.28 146.26
  C 100.36 143.37 101.56 139.73 102.52 135.68
  Q 104.91 125.56 108.93 116.08
  A 2.39 2.30 81.3 0 1 109.50 115.27
  Q 121.20 104.37 134.39 96.13
  A 1.38 1.35 32.8 0 1 135.33 95.94
  Q 137.54 96.29 138.66 94.47
  A 1.67 1.66 -86.2 0 1 139.40 93.82
  Q 163.26 82.86 189.57 80.44
  A 1.62 1.61 55.0 0 1 190.41 80.59
  Q 191.97 81.31 192.90 80.69
  Q 194.78 79.42 196.97 77.92
  Q 195.12 76.56 193.75 76.50
  Q 177.56 75.78 147.91 76.23
  Q 144.04 76.29 140.69 77.16
  Z"
/>
<ellipse fill="#dcfbd8" cx="0.00" cy="0.00" transform="translate(243.99,76.90) rotate(-27.9)" rx="1.83" ry="1.08"/>
<path fill="#dcfbd8" d="
  M 196.97 77.92
  Q 183.22 78.47 167.29 80.35
  Q 151.75 82.18 138.65 87.68
  C 135.17 89.15 129.82 92.13 127.46 93.66
  Q 124.49 95.59 119.24 97.97
  Q 113.95 100.36 110.98 102.26
  Q 109.69 103.09 107.42 102.67
  A 1.19 1.19 0.0 0 1 106.47 101.23
  L 107.62 96.21
  A 2.26 2.06 -23.9 0 1 107.95 95.46
  Q 109.04 93.84 109.99 93.00
  Q 114.24 89.21 116.84 86.91
  A 4.73 4.69 -80.2 0 1 117.71 86.29
  Q 128.39 80.21 140.69 77.16
  Q 144.04 76.29 147.91 76.23
  Q 177.56 75.78 193.75 76.50
  Q 195.12 76.56 196.97 77.92
  Z
  M 148.11 77.89
  Q 147.66 78.24 147.05 79.31
  A 1.16 1.16 0.0 0 0 147.81 81.02
  Q 150.34 81.57 152.56 80.45
  A 1.02 1.02 0.0 0 0 152.62 78.66
  L 150.71 77.54
  A 2.15 2.14 -52.5 0 0 148.11 77.89
  Z
  M 139.68 83.53
  L 142.95 80.92
  A 0.17 0.17 0.0 0 0 142.98 80.69
  L 142.92 80.62
  A 2.14 1.40 -38.6 0 0 140.38 80.86
  L 140.19 81.01
  A 2.14 1.40 -38.6 0 0 139.39 83.44
  L 139.45 83.51
  A 0.17 0.17 0.0 0 0 139.68 83.53
  Z"
/>
<path fill="#54e770" d="
  M 303.30 75.93
  Q 304.48 76.83 303.71 77.62
  Q 302.53 77.65 302.30 76.92
  Q 302.14 76.44 302.50 76.16
  Q 302.78 75.94 303.30 75.93
  Z"
/>
<path fill="#9deaa1" d="
  M 140.69 77.16
  Q 128.39 80.21 117.71 86.29
  A 4.73 4.69 -80.2 0 0 116.84 86.91
  Q 114.24 89.21 109.99 93.00
  Q 109.04 93.84 107.95 95.46
  A 2.26 2.06 -23.9 0 0 107.62 96.21
  L 106.47 101.23
  A 1.19 1.19 0.0 0 0 107.42 102.67
  Q 109.69 103.09 110.98 102.26
  Q 113.95 100.36 119.24 97.97
  Q 124.49 95.59 127.46 93.66
  C 129.82 92.13 135.17 89.15 138.65 87.68
  Q 151.75 82.18 167.29 80.35
  Q 183.22 78.47 196.97 77.92
  Q 194.78 79.42 192.90 80.69
  Q 191.97 81.31 190.41 80.59
  A 1.62 1.61 55.0 0 0 189.57 80.44
  Q 163.26 82.86 139.40 93.82
  A 1.67 1.66 -86.2 0 0 138.66 94.47
  Q 137.54 96.29 135.33 95.94
  A 1.38 1.35 32.8 0 0 134.39 96.13
  Q 121.20 104.37 109.50 115.27
  A 2.39 2.30 81.3 0 0 108.93 116.08
  Q 104.91 125.56 102.52 135.68
  C 101.56 139.73 100.36 143.37 98.28 146.26
  A 1.87 1.86 -57.3 0 1 95.85 146.80
  Q 95.32 146.50 94.54 145.13
  A 1.72 1.70 -60.0 0 1 94.32 144.29
  C 94.25 133.00 96.74 119.55 100.13 109.13
  Q 102.58 101.59 108.17 94.14
  C 114.54 85.62 125.65 80.19 135.82 77.35
  Q 138.16 76.70 140.69 77.16
  Z
  M 101.74 114.36
  Q 106.03 111.35 106.35 106.02
  A 1.15 1.13 26.0 0 0 106.05 105.18
  Q 104.82 103.82 103.89 103.90
  A 1.32 1.30 14.2 0 0 102.90 104.48
  Q 99.91 109.00 100.39 113.74
  A 0.86 0.86 0.0 0 0 101.74 114.36
  Z"
/>
<path fill="#54e770" d="
  M 150.71 77.54
  L 152.62 78.66
  A 1.02 1.02 0.0 0 1 152.56 80.45
  Q 150.34 81.57 147.81 81.02
  A 1.16 1.16 0.0 0 1 147.05 79.31
  Q 147.66 78.24 148.11 77.89
  A 2.15 2.14 -52.5 0 1 150.71 77.54
  Z"
/>
<path fill="#03c945" d="
  M 307.81 79.95
  Q 328.04 81.62 347.98 85.20
  A 0.31 0.31 0.0 0 1 348.19 85.66
  Q 341.73 96.36 336.51 104.31
  C 324.93 121.95 303.48 127.75 283.83 130.03
  C 277.99 125.93 271.07 123.95 264.41 121.31
  Q 268.14 121.09 271.02 119.21
  Q 280.90 112.41 290.82 105.73
  C 295.13 102.82 300.86 97.88 297.25 92.81
  Q 295.90 90.92 294.60 88.87
  C 292.62 85.76 299.25 81.59 301.66 80.18
  A 1.80 1.80 0.0 0 1 302.54 79.95
  L 307.81 79.95
  Z
  M 334.92 92.57
  A 0.58 0.58 0.0 0 0 334.34 91.99
  A 0.58 0.58 0.0 0 0 333.76 92.57
  A 0.58 0.58 0.0 0 0 334.34 93.15
  A 0.58 0.58 0.0 0 0 334.92 92.57
  Z
  M 303.95 108.74
  A 1.00 1.00 0.0 0 0 302.95 107.74
  A 1.00 1.00 0.0 0 0 301.95 108.74
  A 1.00 1.00 0.0 0 0 302.95 109.74
  A 1.00 1.00 0.0 0 0 303.95 108.74
  Z"
/>
<path fill="#9deaa1" d="
  M 139.68 83.53
  A 0.17 0.17 0.0 0 1 139.45 83.51
  L 139.39 83.44
  A 2.14 1.40 -38.6 0 1 140.19 81.01
  L 140.38 80.86
  A 2.14 1.40 -38.6 0 1 142.92 80.62
  L 142.98 80.69
  A 0.17 0.17 0.0 0 1 142.95 80.92
  L 139.68 83.53
  Z"
/>
<path fill="#03da69" d="
  M 399.25 88.92
  Q 416.63 99.21 423.89 117.63
  Q 428.46 129.25 429.73 143.00
  Q 432.54 173.31 431.74 203.75
  Q 430.73 242.20 427.68 280.54
  L 427.66 281.97
  L 426.74 292.53
  Q 426.55 292.93 426.62 293.46
  L 426.22 297.95
  Q 425.86 299.26 426.10 300.71
  L 424.49 316.96
  Q 423.91 317.47 424.25 318.50
  Q 423.72 319.02 424.05 320.05
  L 423.99 321.04
  Q 423.75 321.42 423.84 321.96
  L 423.60 324.54
  L 424.10 313.01
  A 0.18 0.18 0.0 0 0 423.75 312.94
  C 423.01 314.96 422.13 317.32 421.77 319.64
  Q 419.94 331.41 416.40 345.00
  C 414.22 353.41 412.50 363.49 410.88 369.92
  Q 408.74 378.41 403.87 389.50
  Q 409.94 372.55 411.46 364.84
  Q 412.34 360.33 413.16 351.50
  Q 413.61 346.67 413.91 345.35
  Q 416.90 332.34 418.80 318.04
  Q 423.83 280.04 426.12 241.78
  Q 428.89 203.06 428.17 171.11
  Q 427.86 157.70 425.58 140.13
  Q 424.80 134.10 423.53 130.29
  C 422.08 125.97 421.19 121.52 419.23 117.60
  Q 413.37 105.88 403.95 96.90
  Q 402.30 95.33 398.66 93.12
  Q 395.92 91.45 393.20 89.53
  Q 396.01 89.93 399.25 88.92
  Z"
/>
<circle fill="#9deaa1" cx="334.34" cy="92.57" r="0.58"/>
<ellipse fill="#dcfbd8" cx="0.00" cy="0.00" transform="translate(361.27,101.64) rotate(-34.1)" rx="1.20" ry="0.88"/>
<path fill="#00b446" d="
  M 397.04 360.54
  Q 400.18 345.64 401.94 330.48
  C 403.27 319.00 405.28 307.01 404.67 294.38
  Q 404.57 292.32 403.59 289.72
  A 0.81 0.81 0.0 0 0 402.27 289.42
  Q 400.99 290.64 399.95 292.81
  Q 397.36 298.23 394.54 306.78
  Q 387.57 327.91 383.51 338.84
  Q 364.28 390.60 310.77 407.43
  Q 298.88 411.17 287.04 413.11
  Q 266.18 416.52 254.22 419.15
  Q 227.92 417.66 213.71 415.83
  Q 176.25 411.01 168.01 410.00
  C 156.00 408.54 142.45 406.16 133.60 403.60
  C 117.78 399.04 103.19 391.40 92.85 378.58
  A 0.26 0.26 0.0 0 0 92.39 378.71
  Q 91.68 384.30 94.45 388.94
  C 108.36 412.23 140.46 416.54 164.78 418.43
  Q 198.99 421.09 219.63 422.10
  Q 240.39 423.12 268.94 420.33
  Q 285.21 420.66 301.40 421.87
  Q 311.62 422.63 332.13 421.92
  L 340.28 421.94
  Q 329.17 429.19 320.48 431.26
  C 309.84 433.81 299.07 434.80 288.21 435.80
  Q 276.40 435.36 264.58 435.02
  C 255.72 434.77 248.13 433.95 240.41 433.11
  C 223.79 431.29 207.47 431.15 190.91 428.85
  C 180.49 427.40 168.47 426.91 157.19 424.75
  Q 153.82 424.10 145.78 423.17
  Q 132.75 421.65 120.32 417.76
  Q 110.86 412.47 106.38 409.37
  Q 82.09 392.51 79.08 363.42
  C 78.53 358.12 79.45 351.66 83.45 348.39
  Q 88.86 343.96 89.15 343.67
  C 92.71 340.13 93.90 337.21 96.61 332.31
  C 99.26 327.52 104.13 330.94 107.15 332.66
  C 115.65 337.48 124.20 334.15 132.95 331.24
  C 141.11 328.53 147.88 327.45 157.31 325.08
  C 166.92 322.65 173.40 317.35 179.73 309.97
  Q 178.54 319.89 179.57 329.55
  Q 174.17 343.44 161.54 350.45
  Q 155.19 353.97 152.51 354.93
  C 137.16 360.44 126.16 363.19 115.74 373.28
  A 0.19 0.19 0.0 0 0 115.94 373.60
  L 121.02 371.64
  A 0.39 0.39 0.0 0 1 121.39 372.32
  Q 119.20 373.93 116.09 375.04
  A 0.33 0.32 -33.0 0 0 115.97 375.58
  Q 124.62 383.69 131.00 388.09
  C 141.93 395.63 155.33 399.91 168.17 401.99
  Q 201.09 407.30 233.71 409.60
  Q 276.90 412.63 318.64 394.59
  Q 347.96 381.92 360.89 353.03
  Q 375.17 321.12 382.26 304.73
  Q 388.22 290.92 390.50 274.55
  Q 395.13 241.23 395.92 232.44
  C 397.44 215.69 396.54 195.52 396.38 181.50
  C 396.31 174.59 396.36 153.61 382.66 164.23
  Q 372.39 172.19 370.34 173.54
  Q 351.76 185.81 334.11 171.64
  Q 327.13 166.03 318.29 158.41
  Q 314.54 155.18 303.50 148.29
  L 300.43 143.30
  C 312.38 146.47 324.27 149.66 336.78 150.61
  Q 351.66 151.74 363.86 143.17
  Q 365.84 141.79 375.70 133.64
  C 377.60 132.07 381.42 129.80 384.05 129.56
  C 390.63 128.95 395.04 133.87 399.49 136.54
  Q 404.91 139.80 409.01 135.14
  A 0.83 0.82 -31.9 0 0 409.19 134.39
  Q 405.22 118.73 393.42 107.70
  A 0.23 0.22 70.1 0 1 393.60 107.31
  C 407.40 109.02 416.97 131.69 419.54 142.99
  Q 423.49 160.35 423.68 179.10
  C 424.16 225.52 418.55 267.77 409.81 315.36
  Q 405.15 340.69 397.04 360.54
  Z
  M 413.29 147.98
  Q 411.88 150.92 411.70 152.16
  Q 410.74 158.75 406.89 181.96
  C 403.01 205.38 404.68 227.86 407.17 251.90
  C 407.46 254.74 407.93 260.29 409.33 262.68
  A 1.06 1.06 0.0 0 0 411.21 262.58
  Q 413.44 257.69 414.93 247.90
  Q 418.40 225.20 419.26 198.04
  C 419.73 182.92 419.47 167.64 416.32 153.21
  Q 415.62 150.00 414.19 147.91
  A 0.52 0.52 0.0 0 0 413.29 147.98
  Z
  M 114.59 365.97
  Q 114.90 365.87 115.04 365.69
  A 0.38 0.34 14.9 0 0 114.68 365.15
  Q 114.36 365.16 114.21 365.48
  A 0.35 0.33 -84.3 0 0 114.59 365.97
  Z"
/>
<path fill="#03c945" d="
  M 88.69 147.41
  Q 88.82 151.22 88.47 153.29
  C 85.14 173.01 84.64 189.74 84.46 210.96
  Q 85.27 229.88 83.78 248.78
  Q 83.47 252.76 83.61 254.51
  A 0.59 0.59 0.0 0 0 84.69 254.78
  C 85.98 252.77 87.65 249.83 88.62 247.05
  Q 92.21 236.67 97.79 226.07
  Q 98.69 224.35 100.69 216.86
  Q 102.03 211.81 98.57 208.24
  Q 97.37 207.00 97.52 205.96
  Q 97.69 204.72 99.01 203.80
  Q 102.31 205.23 103.53 200.77
  Q 106.22 197.16 109.38 200.00
  Q 110.10 200.65 111.27 204.79
  A 1.06 1.06 0.0 0 1 110.81 205.98
  L 103.56 210.46
  A 0.18 0.15 -7.6 0 0 103.49 210.54
  Q 103.39 210.71 103.38 210.92
  A 0.49 0.49 0.0 0 0 103.94 211.41
  Q 110.51 210.47 116.89 210.01
  Q 130.15 209.06 145.72 203.77
  Q 161.27 198.48 187.64 187.08
  Q 188.38 194.38 189.38 197.94
  Q 190.21 200.88 193.01 207.53
  C 185.02 219.98 177.07 228.53 165.88 236.09
  C 149.76 246.99 129.88 257.93 117.50 265.32
  Q 110.85 269.28 103.82 271.36
  C 100.39 272.37 97.67 273.88 96.04 276.24
  Q 91.84 282.28 90.65 283.77
  C 87.37 287.86 85.17 283.15 84.50 280.48
  Q 82.93 274.24 81.40 265.36
  Q 80.57 260.58 79.00 257.38
  A 1.68 1.42 66.3 0 0 77.13 256.46
  Q 76.49 256.70 75.93 257.77
  C 73.26 262.89 72.29 270.17 71.69 275.80
  Q 68.80 302.89 69.35 331.99
  Q 69.57 343.53 70.44 352.70
  C 71.61 365.03 72.67 374.94 77.13 384.10
  C 84.68 399.59 97.86 409.40 113.75 415.25
  C 98.10 411.91 84.66 399.42 76.84 385.69
  C 72.23 377.59 71.00 368.46 70.15 358.98
  Q 67.98 334.55 68.82 309.69
  Q 69.66 284.93 70.02 265.16
  C 70.12 259.99 71.42 251.16 71.81 243.20
  C 72.06 238.22 72.20 233.27 72.74 227.88
  Q 75.74 198.24 78.71 169.04
  C 79.57 160.67 81.34 150.58 82.35 141.31
  C 85.39 128.64 87.81 115.77 93.24 104.21
  A 0.20 0.20 0.0 0 1 93.62 104.31
  C 93.06 112.00 91.87 120.21 89.63 133.51
  Q 88.79 138.46 88.69 147.41
  Z
  M 96.94 264.42
  A 0.53 0.53 0.0 0 0 96.41 263.89
  A 0.53 0.53 0.0 0 0 95.88 264.42
  A 0.53 0.53 0.0 0 0 96.41 264.95
  A 0.53 0.53 0.0 0 0 96.94 264.42
  Z"
/>
<path fill="#dcfbd8" d="
  M 101.74 114.36
  A 0.86 0.86 0.0 0 1 100.39 113.74
  Q 99.91 109.00 102.90 104.48
  A 1.32 1.30 14.2 0 1 103.89 103.90
  Q 104.82 103.82 106.05 105.18
  A 1.15 1.13 26.0 0 1 106.35 106.02
  Q 106.03 111.35 101.74 114.36
  Z"
/>
<path fill="#03da69" d="
  M 91.43 104.71
  C 86.68 117.41 83.83 127.99 82.35 141.31
  C 81.34 150.58 79.57 160.67 78.71 169.04
  Q 75.74 198.24 72.74 227.88
  C 72.20 233.27 72.06 238.22 71.81 243.20
  C 71.42 251.16 70.12 259.99 70.02 265.16
  Q 69.66 284.93 68.82 309.69
  Q 67.98 334.55 70.15 358.98
  C 71.00 368.46 72.23 377.59 76.84 385.69
  C 84.66 399.42 98.10 411.91 113.75 415.25
  L 120.32 417.76
  Q 132.75 421.65 145.78 423.17
  Q 153.82 424.10 157.19 424.75
  C 168.47 426.91 180.49 427.40 190.91 428.85
  C 207.47 431.15 223.79 431.29 240.41 433.11
  C 248.13 433.95 255.72 434.77 264.58 435.02
  Q 276.40 435.36 288.21 435.80
  Q 300.28 435.93 312.36 436.90
  Q 312.36 436.91 312.37 436.91
  Q 299.92 436.96 287.48 436.28
  Q 281.41 435.95 262.26 437.64
  Q 259.40 437.89 259.50 439.72
  Q 258.83 439.84 258.00 439.65
  L 257.04 439.57
  L 227.04 437.19
  Q 226.58 436.95 225.96 437.09
  L 215.06 436.10
  L 213.71 436.13
  L 208.96 435.67
  L 208.04 435.61
  L 207.04 435.41
  L 205.54 435.26
  L 195.54 434.20
  Q 194.76 433.91 193.71 434.11
  L 189.04 433.63
  Q 188.50 433.26 188.04 433.53
  L 187.54 433.43
  Q 187.02 433.04 186.04 433.28
  L 178.96 432.41
  Q 178.55 432.15 178.03 432.29
  Q 177.24 432.35 176.54 432.16
  Q 176.06 431.98 175.47 432.03
  Q 153.79 429.47 132.38 425.38
  C 118.10 422.66 104.05 418.60 91.61 410.63
  C 73.38 398.93 64.81 379.68 63.70 358.12
  C 62.62 337.16 63.69 315.91 63.84 297.96
  C 63.95 284.20 64.92 269.45 65.80 255.21
  L 65.91 251.97
  L 66.52 244.80
  Q 66.93 244.32 66.63 243.21
  L 67.90 226.72
  L 67.91 225.48
  L 70.45 195.79
  Q 70.77 195.38 70.66 194.46
  L 71.44 186.72
  Q 71.82 186.09 71.62 185.00
  L 72.24 179.48
  Q 74.57 176.61 75.05 173.23
  Q 76.39 163.84 77.72 158.73
  C 80.74 147.06 81.46 139.85 83.98 126.30
  Q 86.10 114.98 91.43 104.71
  Z"
/>
<circle fill="#9deaa1" cx="302.95" cy="108.74" r="1.00"/>
<ellipse fill="#9deaa1" cx="0.00" cy="0.00" transform="translate(179.50,111.92) rotate(-36.8)" rx="1.60" ry="1.16"/>
<ellipse fill="#54e770" cx="0.00" cy="0.00" transform="translate(264.88,113.11) rotate(-175.7)" rx="0.97" ry="0.81"/>
<path fill="#54e770" d="
  M 271.02 119.21
  Q 268.14 121.09 264.41 121.31
  Q 249.55 118.57 234.49 121.60
  A 3.30 3.21 41.8 0 1 233.54 121.64
  C 229.74 121.24 225.71 123.34 222.25 124.59
  Q 222.54 123.41 220.11 123.55
  Q 223.14 121.72 224.73 121.01
  Q 247.65 110.78 271.02 119.21
  Z"
/>
<path fill="#027e45" d="
  M 81.67 117.73
  Q 81.81 118.91 81.35 119.46
  Q 81.30 118.51 81.67 117.73
  Z"
/>
<path fill="#00b446" d="
  M 264.41 121.31
  C 271.07 123.95 277.99 125.93 283.83 130.03
  L 295.00 137.65
  Q 275.09 128.22 269.70 126.50
  Q 245.40 118.74 222.88 129.18
  C 206.84 136.61 196.36 150.04 191.88 167.41
  Q 189.97 174.82 189.60 175.74
  A 0.17 0.17 0.0 0 1 189.30 175.76
  L 189.17 175.54
  A 0.42 0.41 54.7 0 0 188.55 175.43
  Q 187.71 176.15 187.36 177.31
  Q 187.65 170.74 189.43 164.53
  C 191.35 157.82 195.74 150.37 199.18 143.49
  Q 203.03 138.51 205.24 136.76
  Q 211.25 131.99 217.51 127.55
  Q 219.80 125.92 222.25 124.59
  C 225.71 123.34 229.74 121.24 233.54 121.64
  A 3.30 3.21 41.8 0 0 234.49 121.60
  Q 249.55 118.57 264.41 121.31
  Z"
/>
<path fill="#027e45" d="
  M 295.00 137.65
  L 300.43 143.30
  L 303.50 148.29
  L 309.59 159.25
  Q 316.07 176.73 312.32 194.63
  C 310.64 202.61 308.89 209.02 303.53 215.34
  Q 301.83 217.34 297.27 219.14
  Q 294.75 220.14 289.40 225.90
  Q 286.12 229.42 278.94 232.07
  Q 291.16 224.77 299.15 213.34
  L 303.24 206.20
  Q 306.92 197.42 307.48 194.73
  Q 309.34 185.73 308.82 178.28
  Q 308.18 169.14 303.27 156.73
  A 4.14 3.97 17.2 0 0 302.81 155.90
  Q 301.27 153.82 301.06 152.52
  A 1.67 1.65 18.7 0 0 300.59 151.59
  Q 298.65 149.63 296.26 145.06
  A 4.04 3.95 10.7 0 0 295.73 144.30
  Q 289.03 136.86 277.05 130.74
  Q 264.50 124.34 251.73 124.08
  Q 234.76 123.67 220.06 131.91
  C 218.48 132.79 217.11 134.05 215.46 134.91
  Q 213.68 135.84 212.01 137.15
  Q 198.17 148.02 193.44 165.30
  Q 189.28 179.91 192.61 194.43
  C 193.41 197.88 195.14 201.64 196.16 204.99
  C 199.86 217.10 211.28 225.87 221.60 232.31
  C 225.05 234.46 227.57 235.17 231.32 236.47
  Q 232.78 236.98 237.04 237.88
  Q 250.58 240.72 263.98 237.85
  L 271.27 236.26
  A 0.38 0.38 0.0 0 1 271.72 236.70
  Q 271.49 237.95 272.03 239.39
  A 0.76 0.74 -25.2 0 1 271.69 240.31
  Q 267.95 242.42 266.80 242.74
  Q 251.17 247.01 234.72 242.79
  Q 233.69 242.53 224.16 239.40
  Q 218.96 237.70 211.01 231.25
  Q 205.00 226.38 200.29 220.40
  C 197.30 216.59 195.25 212.03 193.01 207.53
  Q 190.21 200.88 189.38 197.94
  Q 188.38 194.38 187.64 187.08
  L 187.36 177.31
  Q 187.71 176.15 188.55 175.43
  A 0.42 0.41 54.7 0 1 189.17 175.54
  L 189.30 175.76
  A 0.17 0.17 0.0 0 0 189.60 175.74
  Q 189.97 174.82 191.88 167.41
  C 196.36 150.04 206.84 136.61 222.88 129.18
  Q 245.40 118.74 269.70 126.50
  Q 275.09 128.22 295.00 137.65
  Z"
/>
<path fill="#9deaa1" d="
  M 220.11 123.55
  Q 222.54 123.41 222.25 124.59
  Q 219.80 125.92 217.51 127.55
  Q 211.25 131.99 205.24 136.76
  Q 203.03 138.51 199.18 143.49
  L 188.47 161.72
  A 0.42 0.42 0.0 0 1 187.75 161.72
  L 187.42 161.14
  A 1.30 1.28 -50.2 0 1 187.33 160.05
  Q 193.05 145.30 199.84 137.85
  Q 207.47 129.48 220.11 123.55
  Z"
/>
<path fill="#7d68c0" d="
  M 251.73 124.08
  Q 255.70 125.23 257.97 127.83
  A 0.03 0.02 -70.2 0 1 257.95 127.87
  Q 257.82 127.87 257.69 127.87
  Q 257.68 127.87 257.67 127.87
  C 257.78 127.88 257.88 127.87 257.98 127.88
  A 0.05 0.05 0.0 0 1 257.99 127.97
  Q 254.16 129.16 249.81 128.94
  Q 236.92 129.25 225.91 135.42
  A 0.96 0.62 -57.1 0 1 225.71 135.51
  L 223.06 136.34
  A 2.83 2.77 -72.1 0 0 222.18 136.80
  Q 213.71 143.47 211.60 145.60
  Q 206.85 150.41 201.23 159.39
  Q 201.06 158.29 200.05 157.52
  Q 210.27 140.54 228.09 131.79
  A 0.42 0.42 0.0 0 0 228.22 131.14
  L 228.13 131.05
  A 0.67 0.65 57.7 0 0 227.37 130.87
  Q 207.45 139.13 198.41 158.20
  Q 197.34 160.48 198.46 160.41
  Q 198.03 163.35 196.80 166.13
  A 0.49 0.49 0.0 0 1 195.88 165.82
  L 197.12 160.44
  A 0.24 0.23 -74.0 0 0 196.98 160.17
  L 196.97 160.17
  A 0.22 0.21 15.7 0 0 196.71 160.31
  Q 195.77 163.27 193.44 165.30
  Q 198.17 148.02 212.01 137.15
  Q 213.68 135.84 215.46 134.91
  C 217.11 134.05 218.48 132.79 220.06 131.91
  Q 234.76 123.67 251.73 124.08
  Z"
/>
<path fill="#4349a7" d="
  M 303.24 206.20
  C 304.24 198.98 303.19 191.75 303.48 184.76
  C 304.30 165.08 296.85 150.53 281.62 138.38
  Q 278.02 135.50 273.42 133.92
  Q 262.60 128.44 250.00 129.05
  Q 249.90 128.99 249.81 128.94
  Q 254.16 129.16 257.99 127.97
  A 0.05 0.05 0.0 0 0 257.98 127.88
  C 257.88 127.87 257.78 127.88 257.67 127.87
  Q 257.68 127.87 257.69 127.87
  Q 257.82 127.87 257.95 127.87
  A 0.03 0.02 80.8 0 0 257.97 127.83
  Q 255.70 125.23 251.73 124.08
  Q 264.50 124.34 277.05 130.74
  Q 289.03 136.86 295.73 144.30
  A 4.04 3.95 10.7 0 1 296.26 145.06
  Q 298.65 149.63 300.59 151.59
  A 1.67 1.65 18.7 0 1 301.06 152.52
  Q 301.27 153.82 302.81 155.90
  A 4.14 3.97 17.2 0 1 303.27 156.73
  Q 308.18 169.14 308.82 178.28
  Q 309.34 185.73 307.48 194.73
  Q 306.92 197.42 303.24 206.20
  Z"
/>
<ellipse fill="#dcfbd8" cx="0.00" cy="0.00" transform="translate(130.07,127.80) rotate(-35.4)" rx="1.90" ry="1.27"/>
<path fill="#9c32df" d="
  M 249.81 128.94
  Q 249.90 128.99 250.00 129.05
  C 260.42 137.07 269.17 147.77 263.55 161.14
  C 260.49 168.41 254.12 173.11 247.28 177.80
  Q 237.91 184.23 227.58 186.91
  C 216.16 189.87 206.18 185.31 197.20 178.19
  Q 197.64 168.32 201.23 159.39
  Q 206.85 150.41 211.60 145.60
  Q 213.71 143.47 222.18 136.80
  A 2.83 2.77 -72.1 0 1 223.06 136.34
  L 225.71 135.51
  A 0.96 0.62 -57.1 0 0 225.91 135.42
  Q 236.92 129.25 249.81 128.94
  Z
  M 220.53 161.52
  L 225.90 155.22
  Q 229.56 152.36 233.00 149.50
  C 236.62 146.48 238.15 141.34 232.83 138.96
  C 228.48 137.00 222.96 140.04 219.92 143.22
  C 216.46 146.84 210.48 154.11 209.96 158.77
  Q 209.73 160.73 210.51 161.50
  Q 216.31 167.27 220.53 161.52
  Z"
/>
<path fill="#8328d0" d="
  M 273.42 133.92
  C 276.60 145.64 279.55 158.33 276.39 170.55
  C 272.81 184.34 258.78 195.38 245.39 200.52
  Q 229.99 206.44 214.54 201.16
  Q 206.77 198.51 198.92 195.69
  Q 196.62 187.18 197.20 178.19
  C 206.18 185.31 216.16 189.87 227.58 186.91
  Q 237.91 184.23 247.28 177.80
  C 254.12 173.11 260.49 168.41 263.55 161.14
  C 269.17 147.77 260.42 137.07 250.00 129.05
  Q 262.60 128.44 273.42 133.92
  Z"
/>
<path fill="#dcfbd8" d="
  M 200.05 157.52
  L 198.46 160.41
  Q 197.34 160.48 198.41 158.20
  Q 207.45 139.13 227.37 130.87
  A 0.67 0.65 57.7 0 1 228.13 131.05
  L 228.22 131.14
  A 0.42 0.42 0.0 0 1 228.09 131.79
  Q 210.27 140.54 200.05 157.52
  Z"
/>
<path fill="#03da69" d="
  M 92.65 151.43
  Q 89.66 159.52 89.10 167.73
  Q 87.46 191.76 85.70 225.11
  A 0.32 0.32 0.0 0 1 85.37 225.42
  L 85.35 225.42
  A 0.32 0.32 0.0 0 1 85.04 225.09
  Q 85.77 199.19 87.14 170.47
  Q 87.50 162.81 89.14 155.29
  Q 89.29 150.81 91.01 146.78
  A 0.70 0.69 -81.1 0 0 90.31 145.81
  Q 90.03 145.84 89.63 146.22
  A 0.27 0.26 -42.8 0 1 89.25 146.21
  A 0.16 0.16 0.0 0 1 89.27 145.97
  Q 90.70 144.82 91.49 145.84
  A 0.36 0.36 0.0 0 0 92.09 145.80
  Q 92.14 145.71 92.89 146.47
  A 0.28 0.27 23.9 0 0 93.36 146.29
  L 94.18 132.70
  A 0.16 0.14 -63.4 0 1 94.45 132.59
  Q 94.50 132.66 94.51 132.67
  A 0.17 0.01 -82.2 0 1 94.50 132.83
  Q 93.88 139.31 93.51 147.39
  Q 93.47 148.29 92.65 151.43
  Z"
/>
<path fill="#6828bd" d="
  M 273.42 133.92
  Q 278.02 135.50 281.62 138.38
  C 296.85 150.53 304.30 165.08 303.48 184.76
  C 303.19 191.75 304.24 198.98 303.24 206.20
  L 299.15 213.34
  C 296.48 202.49 286.29 202.87 279.40 209.62
  Q 276.17 212.78 271.86 215.78
  Q 267.27 218.97 268.48 223.62
  Q 269.57 227.80 270.74 231.94
  L 268.14 233.03
  Q 264.23 234.78 262.46 234.48
  Q 255.42 233.29 249.63 233.16
  Q 241.98 233.00 238.54 232.08
  C 228.56 229.42 220.52 224.32 212.72 217.76
  A 0.28 0.27 -48.8 0 0 212.34 217.79
  L 212.31 217.82
  A 0.26 0.26 0.0 0 0 212.33 218.18
  Q 219.46 224.76 228.10 229.38
  A 0.03 0.02 50.4 0 1 228.11 229.43
  Q 228.08 229.42 228.06 229.41
  Q 218.32 225.92 211.57 218.45
  Q 203.23 209.22 198.92 195.69
  Q 206.77 198.51 214.54 201.16
  Q 229.99 206.44 245.39 200.52
  C 258.78 195.38 272.81 184.34 276.39 170.55
  C 279.55 158.33 276.60 145.64 273.42 133.92
  Z"
/>
<path fill="#00a342" d="
  M 413.29 147.98
  A 0.52 0.52 0.0 0 1 414.19 147.91
  Q 415.62 150.00 416.32 153.21
  C 419.47 167.64 419.73 182.92 419.26 198.04
  Q 418.40 225.20 414.93 247.90
  Q 413.44 257.69 411.21 262.58
  A 1.06 1.06 0.0 0 1 409.33 262.68
  C 407.93 260.29 407.46 254.74 407.17 251.90
  C 404.68 227.86 403.01 205.38 406.89 181.96
  Q 410.74 158.75 411.70 152.16
  Q 411.88 150.92 413.29 147.98
  Z"
/>
<path fill="#027e45" d="
  M 77.85 136.28
  Q 77.99 136.99 77.72 137.50
  L 77.85 136.28
  Z"
/>
<path fill="#027e45" d="
  M 77.72 137.50
  L 77.55 138.77
  Q 77.53 138.07 77.72 137.50
  Z"
/>
<path fill="#b56bfa" d="
  M 225.90 155.22
  Q 226.91 152.47 226.69 149.75
  A 1.71 1.68 24.7 0 0 226.36 148.88
  Q 225.25 147.36 223.73 146.35
  A 1.15 1.14 -38.6 0 0 222.71 146.24
  Q 217.45 148.26 214.51 151.96
  A 0.70 0.68 -24.5 0 0 214.35 152.37
  L 214.04 160.22
  A 1.62 1.61 -83.0 0 0 215.32 161.86
  Q 217.57 162.34 220.53 161.52
  Q 216.31 167.27 210.51 161.50
  Q 209.73 160.73 209.96 158.77
  C 210.48 154.11 216.46 146.84 219.92 143.22
  C 222.96 140.04 228.48 137.00 232.83 138.96
  C 238.15 141.34 236.62 146.48 233.00 149.50
  Q 229.56 152.36 225.90 155.22
  Z"
/>
<path fill="#caabfd" d="
  M 225.90 155.22
  L 220.53 161.52
  Q 217.57 162.34 215.32 161.86
  A 1.62 1.61 -83.0 0 1 214.04 160.22
  L 214.35 152.37
  A 0.70 0.68 -24.5 0 1 214.51 151.96
  Q 217.45 148.26 222.71 146.24
  A 1.15 1.14 -38.6 0 1 223.73 146.35
  Q 225.25 147.36 226.36 148.88
  A 1.71 1.68 24.7 0 1 226.69 149.75
  Q 226.91 152.47 225.90 155.22
  Z"
/>
<path fill="#00ad42" d="
  M 179.57 329.55
  Q 181.16 337.49 182.22 340.27
  Q 183.81 344.41 187.88 351.85
  C 189.69 355.15 191.99 357.84 194.37 360.73
  Q 200.84 379.36 217.82 389.74
  Q 223.03 392.93 230.34 396.92
  A 0.14 0.14 0.0 0 1 230.40 397.10
  A 0.15 0.15 0.0 0 1 230.20 397.18
  C 219.89 393.34 212.43 388.74 200.31 382.01
  Q 199.05 381.31 198.33 381.26
  A 0.54 0.54 0.0 0 0 197.92 382.18
  Q 205.44 389.46 216.29 394.41
  C 238.30 404.44 264.42 405.02 287.36 396.91
  Q 313.85 387.54 325.37 362.87
  C 331.59 349.54 332.02 336.06 326.59 322.56
  Q 319.93 305.99 310.48 288.72
  Q 308.41 284.95 305.08 279.92
  C 300.23 272.60 295.65 266.25 298.39 258.24
  Q 300.21 252.92 303.50 248.14
  C 307.92 241.73 313.36 234.71 316.94 227.86
  Q 331.66 199.72 316.89 171.01
  C 315.01 167.35 312.07 163.07 309.59 159.25
  L 303.50 148.29
  Q 314.54 155.18 318.29 158.41
  Q 327.13 166.03 334.11 171.64
  Q 351.76 185.81 370.34 173.54
  Q 372.39 172.19 382.66 164.23
  C 396.36 153.61 396.31 174.59 396.38 181.50
  C 396.54 195.52 397.44 215.69 395.92 232.44
  Q 395.13 241.23 390.50 274.55
  Q 388.22 290.92 382.26 304.73
  Q 375.17 321.12 360.89 353.03
  Q 347.96 381.92 318.64 394.59
  Q 276.90 412.63 233.71 409.60
  Q 201.09 407.30 168.17 401.99
  C 155.33 399.91 141.93 395.63 131.00 388.09
  Q 124.62 383.69 115.97 375.58
  A 0.33 0.32 -33.0 0 1 116.09 375.04
  Q 119.20 373.93 121.39 372.32
  A 0.39 0.39 0.0 0 0 121.02 371.64
  L 115.94 373.60
  A 0.19 0.19 0.0 0 1 115.74 373.28
  C 126.16 363.19 137.16 360.44 152.51 354.93
  Q 155.19 353.97 161.54 350.45
  Q 174.17 343.44 179.57 329.55
  Z
  M 366.93 181.42
  Q 366.95 182.09 367.16 182.32
  A 0.56 0.54 -70.6 0 0 368.10 181.85
  Q 368.03 181.29 367.96 181.15
  A 0.55 0.55 0.0 0 0 366.93 181.42
  Z"
/>
<path fill="#4349a7" d="
  M 201.23 159.39
  Q 197.64 168.32 197.20 178.19
  Q 196.62 187.18 198.92 195.69
  Q 203.23 209.22 211.57 218.45
  Q 218.32 225.92 228.06 229.41
  Q 228.08 229.42 228.11 229.43
  A 0.03 0.02 50.4 0 0 228.10 229.38
  Q 219.46 224.76 212.33 218.18
  A 0.26 0.26 0.0 0 1 212.31 217.82
  L 212.34 217.79
  A 0.28 0.27 -48.8 0 1 212.72 217.76
  C 220.52 224.32 228.56 229.42 238.54 232.08
  Q 241.98 233.00 249.63 233.16
  Q 255.42 233.29 262.46 234.48
  Q 264.23 234.78 268.14 233.03
  Q 267.52 234.84 267.97 236.61
  L 263.98 237.85
  Q 250.58 240.72 237.04 237.88
  Q 232.78 236.98 231.32 236.47
  C 227.57 235.17 225.05 234.46 221.60 232.31
  C 211.28 225.87 199.86 217.10 196.16 204.99
  C 195.14 201.64 193.41 197.88 192.61 194.43
  Q 189.28 179.91 193.44 165.30
  Q 195.77 163.27 196.71 160.31
  A 0.22 0.21 15.7 0 1 196.97 160.17
  L 196.98 160.17
  A 0.24 0.23 -74.0 0 1 197.12 160.44
  L 195.88 165.82
  A 0.49 0.49 0.0 0 0 196.80 166.13
  Q 198.03 163.35 198.46 160.41
  L 200.05 157.52
  Q 201.06 158.29 201.23 159.39
  Z"
/>
<path fill="#00a342" d="
  M 194.37 360.73
  C 205.59 372.73 222.20 382.45 239.17 382.39
  Q 245.75 382.37 252.55 382.24
  Q 250.61 382.56 249.56 383.38
  A 0.47 0.46 -60.6 0 0 249.79 384.21
  C 258.81 385.22 263.76 382.90 272.14 378.78
  C 282.96 373.46 294.01 361.66 299.65 350.70
  A 0.38 0.38 0.0 0 0 299.34 350.15
  Q 298.12 350.04 296.90 350.92
  C 298.56 347.09 300.72 343.11 301.71 339.32
  Q 305.66 324.08 303.30 307.28
  C 302.13 298.94 297.12 289.84 291.94 283.59
  Q 290.24 281.54 283.58 274.91
  Q 279.05 270.39 273.98 267.77
  C 264.40 262.81 256.32 260.30 245.88 260.08
  C 230.52 259.77 218.92 260.47 208.24 270.80
  A 0.30 0.30 0.0 0 0 208.60 271.27
  L 211.25 269.74
  A 0.25 0.25 0.0 0 1 211.60 270.07
  Q 211.32 270.61 211.97 270.56
  Q 203.62 275.02 197.51 281.72
  C 192.73 285.29 190.58 289.22 187.63 294.18
  C 185.88 297.11 183.20 300.00 181.37 303.27
  L 182.02 299.47
  L 187.59 287.64
  A 1.18 1.13 -10.2 0 1 187.88 287.24
  Q 189.98 285.28 191.47 282.29
  A 2.20 2.17 -7.2 0 1 192.06 281.54
  C 194.91 279.16 197.62 275.24 200.78 272.59
  Q 209.89 264.95 221.38 259.79
  L 227.97 257.53
  A 0.30 0.30 0.0 0 0 228.09 257.05
  Q 217.71 245.39 211.01 231.25
  Q 218.96 237.70 224.16 239.40
  Q 233.69 242.53 234.72 242.79
  Q 251.17 247.01 266.80 242.74
  Q 267.95 242.42 271.69 240.31
  A 0.76 0.74 -25.2 0 0 272.03 239.39
  Q 271.49 237.95 271.72 236.70
  A 0.38 0.38 0.0 0 0 271.27 236.26
  L 263.98 237.85
  L 267.97 236.61
  Q 268.11 236.55 268.25 236.50
  Q 274.02 235.09 278.94 232.07
  Q 286.12 229.42 289.40 225.90
  Q 294.75 220.14 297.27 219.14
  Q 301.83 217.34 303.53 215.34
  C 308.89 209.02 310.64 202.61 312.32 194.63
  Q 316.07 176.73 309.59 159.25
  C 312.07 163.07 315.01 167.35 316.89 171.01
  Q 331.66 199.72 316.94 227.86
  C 313.36 234.71 307.92 241.73 303.50 248.14
  Q 300.21 252.92 298.39 258.24
  C 295.65 266.25 300.23 272.60 305.08 279.92
  Q 308.41 284.95 310.48 288.72
  Q 319.93 305.99 326.59 322.56
  C 332.02 336.06 331.59 349.54 325.37 362.87
  Q 313.85 387.54 287.36 396.91
  C 264.42 405.02 238.30 404.44 216.29 394.41
  Q 205.44 389.46 197.92 382.18
  A 0.54 0.54 0.0 0 1 198.33 381.26
  Q 199.05 381.31 200.31 382.01
  C 212.43 388.74 219.89 393.34 230.20 397.18
  A 0.15 0.15 0.0 0 0 230.40 397.10
  A 0.14 0.14 0.0 0 0 230.34 396.92
  Q 223.03 392.93 217.82 389.74
  Q 200.84 379.36 194.37 360.73
  Z"
/>
<path fill="#54e770" d="
  M 91.72 160.23
  Q 91.39 170.17 89.52 179.89
  A 0.15 0.14 -80.5 0 1 89.37 180.00
  Q 89.16 179.98 89.18 179.76
  Q 89.90 169.91 91.72 160.23
  Z"
/>
<path fill="#00a342" d="
  M 74.00 163.54
  Q 74.12 164.44 73.82 165.04
  Q 73.63 164.22 74.00 163.54
  Z"
/>
<path fill="#027e45" d="
  M 73.68 166.46
  Q 73.92 167.36 73.51 167.80
  Q 73.43 167.04 73.68 166.46
  Z"
/>
<path fill="#027e45" d="
  M 72.49 177.04
  Q 72.69 177.79 72.35 178.22
  Q 72.30 177.56 72.49 177.04
  Z"
/>
<path fill="#54e770" d="
  M 366.93 181.42
  A 0.55 0.55 0.0 0 1 367.96 181.15
  Q 368.03 181.29 368.10 181.85
  A 0.56 0.54 -70.6 0 1 367.16 182.32
  Q 366.95 182.09 366.93 181.42
  Z"
/>
<path fill="#027e45" d="
  M 71.62 185.00
  Q 71.82 186.09 71.44 186.72
  L 71.62 185.00
  Z"
/>
<ellipse fill="#9deaa1" cx="0.00" cy="0.00" transform="translate(168.11,186.40) rotate(-33.5)" rx="0.89" ry="0.59"/>
<path fill="#027e45" d="
  M 70.66 194.46
  Q 70.77 195.38 70.45 195.79
  L 70.66 194.46
  Z"
/>
<path fill="#9deaa1" d="
  M 103.53 200.77
  Q 102.31 205.23 99.01 203.80
  Q 100.75 196.38 103.53 200.77
  Z"
/>
<path fill="#8328d0" d="
  M 299.15 213.34
  Q 291.16 224.77 278.94 232.07
  Q 274.02 235.09 268.25 236.50
  Q 270.10 234.45 270.74 231.94
  Q 269.57 227.80 268.48 223.62
  Q 267.27 218.97 271.86 215.78
  Q 276.17 212.78 279.40 209.62
  C 286.29 202.87 296.48 202.49 299.15 213.34
  Z"
/>
<path fill="#00bc44" d="
  M 211.01 231.25
  Q 217.71 245.39 228.09 257.05
  A 0.30 0.30 0.0 0 1 227.97 257.53
  L 221.38 259.79
  Q 211.26 261.83 203.04 267.51
  C 197.28 271.50 192.21 277.36 187.53 283.28
  Q 186.01 285.21 183.20 290.92
  Q 180.86 295.67 180.91 300.23
  A 0.20 0.20 0.0 0 0 181.26 300.36
  L 182.02 299.47
  L 181.37 303.27
  L 179.73 309.97
  C 173.40 317.35 166.92 322.65 157.31 325.08
  C 147.88 327.45 141.11 328.53 132.95 331.24
  C 124.20 334.15 115.65 337.48 107.15 332.66
  C 104.13 330.94 99.26 327.52 96.61 332.31
  C 93.90 337.21 92.71 340.13 89.15 343.67
  Q 88.86 343.96 83.45 348.39
  C 79.45 351.66 78.53 358.12 79.08 363.42
  Q 82.09 392.51 106.38 409.37
  Q 110.86 412.47 120.32 417.76
  L 113.75 415.25
  C 97.86 409.40 84.68 399.59 77.13 384.10
  C 72.67 374.94 71.61 365.03 70.44 352.70
  Q 69.57 343.53 69.35 331.99
  Q 68.80 302.89 71.69 275.80
  C 72.29 270.17 73.26 262.89 75.93 257.77
  Q 76.49 256.70 77.13 256.46
  A 1.68 1.42 66.3 0 1 79.00 257.38
  Q 80.57 260.58 81.40 265.36
  Q 82.93 274.24 84.50 280.48
  C 85.17 283.15 87.37 287.86 90.65 283.77
  Q 91.84 282.28 96.04 276.24
  C 97.67 273.88 100.39 272.37 103.82 271.36
  Q 110.85 269.28 117.50 265.32
  C 129.88 257.93 149.76 246.99 165.88 236.09
  C 177.07 228.53 185.02 219.98 193.01 207.53
  C 195.25 212.03 197.30 216.59 200.29 220.40
  Q 205.00 226.38 211.01 231.25
  Z
  M 137.8085 294.5046
  A 1.18 0.85 -54.9 0 0 136.4346 294.9812
  A 1.18 0.85 -54.9 0 0 136.4515 296.4354
  A 1.18 0.85 -54.9 0 0 137.8254 295.9588
  A 1.18 0.85 -54.9 0 0 137.8085 294.5046
  Z"
/>
<path fill="#027e45" d="
  M 67.91 225.48
  L 67.90 226.72
  Q 67.81 226.09 67.91 225.48
  Z"
/>
<path fill="#7d68c0" d="
  M 268.25 236.50
  Q 268.11 236.55 267.97 236.61
  Q 267.52 234.84 268.14 233.03
  L 270.74 231.94
  Q 270.10 234.45 268.25 236.50
  Z"
/>
<path fill="#0cdc44" d="
  M 426.12 241.78
  Q 423.83 280.04 418.80 318.04
  Q 416.90 332.34 413.91 345.35
  Q 413.61 346.67 413.16 351.50
  Q 412.34 360.33 411.46 364.84
  Q 409.94 372.55 403.87 389.50
  Q 398.40 401.84 389.25 411.49
  Q 385.92 415.01 382.02 419.17
  Q 379.86 421.47 377.91 422.72
  Q 373.82 425.34 373.27 425.55
  Q 363.97 429.06 359.47 431.08
  A 4.67 4.55 28.4 0 1 358.28 431.42
  C 356.35 431.71 354.41 432.79 352.55 432.87
  C 349.58 432.99 346.25 434.47 342.73 435.05
  Q 327.61 437.54 312.63 437.34
  L 312.63 437.35
  A 0.02 0.01 0.0 0 0 312.65 437.36
  L 327.75 437.96
  A 0.09 0.09 0.0 0 1 327.77 438.14
  C 321.42 439.56 316.90 439.55 308.10 440.00
  Q 306.02 440.11 302.80 442.02
  L 287.01 441.42
  Q 286.31 441.20 285.52 441.31
  L 283.04 441.17
  Q 282.21 440.90 281.21 441.11
  L 273.04 440.64
  Q 272.62 440.31 272.04 440.54
  L 266.96 440.14
  L 264.72 440.08
  L 259.50 439.72
  Q 259.40 437.89 262.26 437.64
  Q 281.41 435.95 287.48 436.28
  Q 299.92 436.96 312.37 436.91
  Q 312.36 436.91 312.36 436.90
  Q 300.28 435.93 288.21 435.80
  C 299.07 434.80 309.84 433.81 320.48 431.26
  Q 329.17 429.19 340.28 421.94
  Q 345.80 421.05 351.32 419.98
  Q 361.21 418.07 369.02 412.53
  Q 371.15 411.02 376.62 406.71
  A 9.18 8.92 -89.0 0 0 378.03 405.31
  Q 382.65 399.55 385.59 392.69
  Q 385.60 392.24 386.04 391.94
  Q 394.06 384.13 398.46 373.42
  Q 406.14 354.72 409.98 334.83
  Q 412.22 323.20 420.32 284.77
  Q 423.95 267.53 426.12 241.78
  Z"
/>
<path fill="#00b446" d="
  M 66.63 243.21
  Q 66.93 244.32 66.52 244.80
  Q 66.44 243.99 66.63 243.21
  Z"
/>
<path fill="#027e45" d="
  M 65.91 251.97
  L 65.80 255.21
  L 65.91 251.97
  Z"
/>
<path fill="#9deaa1" d="
  M 221.38 259.79
  Q 209.89 264.95 200.78 272.59
  C 197.62 275.24 194.91 279.16 192.06 281.54
  A 2.20 2.17 -7.2 0 0 191.47 282.29
  Q 189.98 285.28 187.88 287.24
  A 1.18 1.13 -10.2 0 0 187.59 287.64
  L 182.02 299.47
  L 181.26 300.36
  A 0.20 0.20 0.0 0 1 180.91 300.23
  Q 180.86 295.67 183.20 290.92
  Q 186.01 285.21 187.53 283.28
  C 192.21 277.36 197.28 271.50 203.04 267.51
  Q 211.26 261.83 221.38 259.79
  Z"
/>
<path fill="#027e45" d="
  M 296.90 350.92
  Q 292.42 357.85 289.42 361.16
  Q 285.43 365.54 277.84 371.54
  Q 267.44 379.77 252.55 382.24
  Q 245.75 382.37 239.17 382.39
  C 222.20 382.45 205.59 372.73 194.37 360.73
  C 191.99 357.84 189.69 355.15 187.88 351.85
  Q 183.81 344.41 182.22 340.27
  Q 181.16 337.49 179.57 329.55
  Q 178.54 319.89 179.73 309.97
  L 181.37 303.27
  C 183.20 300.00 185.88 297.11 187.63 294.18
  C 190.58 289.22 192.73 285.29 197.51 281.72
  Q 184.19 296.83 182.74 316.92
  Q 182.42 323.66 183.06 327.00
  C 183.90 331.41 184.47 335.80 186.20 339.86
  Q 189.34 347.22 194.39 354.40
  Q 199.37 361.49 206.12 366.09
  Q 214.75 371.98 223.05 374.95
  Q 235.57 379.43 249.39 377.58
  Q 256.34 376.78 263.09 374.07
  Q 272.79 369.82 279.38 364.38
  Q 284.08 360.49 288.33 353.83
  L 294.42 344.15
  Q 297.25 339.08 297.79 336.02
  C 298.39 332.60 299.78 328.67 299.92 325.54
  Q 300.47 312.57 297.27 302.97
  Q 296.41 300.38 291.45 289.94
  A 6.10 5.98 -78.1 0 0 290.66 288.70
  Q 288.13 285.66 287.76 284.70
  A 1.60 1.58 12.9 0 0 287.39 284.12
  L 281.36 278.03
  A 0.94 0.48 62.8 0 0 281.22 277.93
  Q 280.16 277.35 278.12 275.33
  Q 277.54 274.75 276.50 274.05
  Q 252.60 257.86 224.43 264.97
  Q 217.95 267.08 211.97 270.56
  Q 211.32 270.61 211.60 270.07
  A 0.25 0.25 0.0 0 0 211.25 269.74
  L 208.60 271.27
  A 0.30 0.30 0.0 0 1 208.24 270.80
  C 218.92 260.47 230.52 259.77 245.88 260.08
  C 256.32 260.30 264.40 262.81 273.98 267.77
  Q 279.05 270.39 283.58 274.91
  Q 290.24 281.54 291.94 283.59
  C 297.12 289.84 302.13 298.94 303.30 307.28
  Q 305.66 324.08 301.71 339.32
  C 300.72 343.11 298.56 347.09 296.90 350.92
  Z"
/>
<path fill="#4349a7" d="
  M 294.42 344.15
  Q 292.86 338.76 293.27 336.27
  C 294.69 327.64 295.29 317.60 293.36 309.10
  C 291.76 302.02 287.84 294.91 283.71 288.29
  C 279.95 282.24 274.45 278.40 268.76 274.07
  Q 265.13 271.31 260.01 269.55
  Q 249.58 265.99 238.41 266.33
  Q 232.16 264.56 224.43 264.97
  Q 252.60 257.86 276.50 274.05
  Q 277.54 274.75 278.12 275.33
  Q 280.16 277.35 281.22 277.93
  A 0.94 0.48 62.8 0 1 281.36 278.03
  L 287.39 284.12
  A 1.60 1.58 12.9 0 1 287.76 284.70
  Q 288.13 285.66 290.66 288.70
  A 6.10 5.98 -78.1 0 1 291.45 289.94
  Q 296.41 300.38 297.27 302.97
  Q 300.47 312.57 299.92 325.54
  C 299.78 328.67 298.39 332.60 297.79 336.02
  Q 297.25 339.08 294.42 344.15
  Z"
/>
<circle fill="#54e770" cx="96.41" cy="264.42" r="0.53"/>
<path fill="#7d68c0" d="
  M 238.41 266.33
  L 231.67 267.91
  L 226.20 269.50
  C 214.57 274.60 204.54 281.01 197.02 291.52
  Q 194.28 295.36 190.28 304.61
  C 189.31 308.49 188.52 311.45 185.37 313.27
  A 1.63 1.61 81.6 0 0 184.61 314.30
  L 183.95 317.16
  A 0.41 0.41 0.0 0 1 183.28 317.38
  L 182.74 316.92
  Q 184.19 296.83 197.51 281.72
  Q 203.62 275.02 211.97 270.56
  Q 217.95 267.08 224.43 264.97
  Q 232.16 264.56 238.41 266.33
  Z
  M 191.15 296.70
  L 198.33 286.25
  A 1.54 1.21 -11.7 0 1 198.49 286.06
  Q 208.59 275.66 221.00 269.52
  A 0.45 0.44 -27.7 0 0 221.20 268.91
  L 221.18 268.89
  A 0.48 0.47 63.7 0 0 220.58 268.68
  Q 211.75 272.53 203.86 278.76
  Q 198.71 282.83 196.17 286.69
  Q 192.76 291.88 190.76 296.49
  A 0.22 0.22 0.0 0 0 191.15 296.70
  Z"
/>
<path fill="#6828bd" d="
  M 294.42 344.15
  L 288.33 353.83
  Q 281.95 345.64 271.63 348.21
  C 265.26 349.80 264.47 358.40 258.98 361.80
  Q 252.95 365.54 249.01 369.16
  A 0.51 0.51 0.0 0 0 249.09 369.97
  Q 250.23 370.66 251.27 371.63
  C 253.97 374.15 259.53 374.47 263.09 374.07
  Q 256.34 376.78 249.39 377.58
  Q 244.23 374.53 238.43 373.44
  Q 232.96 372.40 231.37 371.78
  Q 224.89 369.25 216.95 365.46
  C 204.37 359.45 196.16 349.21 191.15 336.40
  Q 188.91 330.69 188.43 325.95
  C 199.54 337.90 212.23 346.96 228.66 344.96
  C 249.63 342.41 264.42 326.05 266.91 304.73
  C 268.69 289.56 263.16 275.68 247.71 271.08
  Q 239.94 268.78 231.67 267.91
  L 238.41 266.33
  Q 249.58 265.99 260.01 269.55
  Q 265.13 271.31 268.76 274.07
  C 274.45 278.40 279.95 282.24 283.71 288.29
  C 287.84 294.91 291.76 302.02 293.36 309.10
  C 295.29 317.60 294.69 327.64 293.27 336.27
  Q 292.86 338.76 294.42 344.15
  Z"
/>
<path fill="#8328d0" d="
  M 188.43 325.95
  Q 186.94 316.17 190.31 306.35
  C 194.58 314.77 199.90 322.04 209.56 324.56
  C 223.87 328.30 243.29 318.81 248.28 303.86
  C 253.73 287.54 240.03 276.44 226.20 269.50
  L 231.67 267.91
  Q 239.94 268.78 247.71 271.08
  C 263.16 275.68 268.69 289.56 266.91 304.73
  C 264.42 326.05 249.63 342.41 228.66 344.96
  C 212.23 346.96 199.54 337.90 188.43 325.95
  Z"
/>
<path fill="#caabfd" d="
  M 191.15 296.70
  A 0.22 0.22 0.0 0 1 190.76 296.49
  Q 192.76 291.88 196.17 286.69
  Q 198.71 282.83 203.86 278.76
  Q 211.75 272.53 220.58 268.68
  A 0.48 0.47 63.7 0 1 221.18 268.89
  L 221.20 268.91
  A 0.45 0.44 -27.7 0 1 221.00 269.52
  Q 208.59 275.66 198.49 286.06
  A 1.54 1.21 -11.7 0 0 198.33 286.25
  L 191.15 296.70
  Z"
/>
<path fill="#9c32df" d="
  M 226.20 269.50
  C 240.03 276.44 253.73 287.54 248.28 303.86
  C 243.29 318.81 223.87 328.30 209.56 324.56
  C 199.90 322.04 194.58 314.77 190.31 306.35
  Q 190.15 305.49 190.28 304.61
  Q 194.28 295.36 197.02 291.52
  C 204.54 281.01 214.57 274.60 226.20 269.50
  Z
  M 216.06 296.68
  L 220.32 291.02
  Q 222.63 289.76 224.23 287.73
  C 227.92 283.06 224.50 277.27 218.51 279.05
  C 215.31 280.00 212.68 281.24 210.27 283.68
  C 206.36 287.64 201.56 294.12 201.94 299.99
  A 1.09 1.08 -74.4 0 0 202.40 300.82
  Q 206.36 303.60 211.36 303.04
  A 1.01 1.00 13.3 0 0 212.10 302.59
  L 216.06 296.68
  Z"
/>
<path fill="#03c945" d="
  M 397.04 360.54
  Q 393.17 376.98 386.04 391.94
  Q 385.60 392.24 385.59 392.69
  Q 379.52 397.97 375.45 404.43
  A 2.36 2.35 22.5 0 1 372.92 405.47
  L 369.81 404.76
  A 1.15 1.14 -48.4 0 0 369.18 404.80
  Q 362.80 407.12 360.54 408.79
  Q 355.76 412.31 353.14 413.96
  A 20.08 20.02 19.0 0 1 349.12 415.91
  L 332.13 421.92
  Q 311.62 422.63 301.40 421.87
  Q 285.21 420.66 268.94 420.33
  L 254.22 419.15
  Q 266.18 416.52 287.04 413.11
  Q 298.88 411.17 310.77 407.43
  Q 364.28 390.60 383.51 338.84
  Q 387.57 327.91 394.54 306.78
  Q 397.36 298.23 399.95 292.81
  Q 400.99 290.64 402.27 289.42
  A 0.81 0.81 0.0 0 1 403.59 289.72
  Q 404.57 292.32 404.67 294.38
  C 405.28 307.01 403.27 319.00 401.94 330.48
  Q 400.18 345.64 397.04 360.54
  Z"
/>
<path fill="#b56bfa" d="
  M 220.32 291.02
  L 220.42 283.37
  A 1.22 1.21 86.2 0 0 219.03 282.15
  C 211.75 283.25 204.42 289.66 205.10 297.61
  A 1.42 1.41 -1.1 0 0 206.46 298.91
  Q 211.92 299.09 216.06 296.68
  L 212.10 302.59
  A 1.01 1.00 13.3 0 1 211.36 303.04
  Q 206.36 303.60 202.40 300.82
  A 1.09 1.08 -74.4 0 1 201.94 299.99
  C 201.56 294.12 206.36 287.64 210.27 283.68
  C 212.68 281.24 215.31 280.00 218.51 279.05
  C 224.50 277.27 227.92 283.06 224.23 287.73
  Q 222.63 289.76 220.32 291.02
  Z"
/>
<path fill="#00a342" d="
  M 427.68 280.54
  L 427.66 281.97
  L 427.68 280.54
  Z"
/>
<path fill="#caabfd" d="
  M 220.32 291.02
  L 216.06 296.68
  Q 211.92 299.09 206.46 298.91
  A 1.42 1.41 -1.1 0 1 205.10 297.61
  C 204.42 289.66 211.75 283.25 219.03 282.15
  A 1.22 1.21 86.2 0 1 220.42 283.37
  L 220.32 291.02
  Z"
/>
<path fill="#00a342" d="
  M 426.74 292.53
  Q 426.59 292.98 426.62 293.46
  Q 426.55 292.93 426.74 292.53
  Z"
/>
<ellipse fill="#9deaa1" cx="0.00" cy="0.00" transform="translate(137.13,295.47) rotate(-54.9)" rx="1.18" ry="0.85"/>
<path fill="#00a342" d="
  M 426.22 297.95
  L 426.10 300.71
  Q 425.86 299.26 426.22 297.95
  Z"
/>
<path fill="#4349a7" d="
  M 190.28 304.61
  Q 190.15 305.49 190.31 306.35
  Q 186.94 316.17 188.43 325.95
  Q 188.91 330.69 191.15 336.40
  C 196.16 349.21 204.37 359.45 216.95 365.46
  Q 224.89 369.25 231.37 371.78
  Q 232.96 372.40 238.43 373.44
  Q 244.23 374.53 249.39 377.58
  Q 235.57 379.43 223.05 374.95
  Q 214.75 371.98 206.12 366.09
  Q 199.37 361.49 194.39 354.40
  Q 189.34 347.22 186.20 339.86
  C 184.47 335.80 183.90 331.41 183.06 327.00
  Q 182.42 323.66 182.74 316.92
  L 183.28 317.38
  A 0.41 0.41 0.0 0 0 183.95 317.16
  L 184.61 314.30
  A 1.63 1.61 81.6 0 1 185.37 313.27
  C 188.52 311.45 189.31 308.49 190.28 304.61
  Z"
/>
<path fill="#54e770" d="
  M 423.60 324.54
  L 423.16 326.96
  Q 422.80 327.49 423.11 328.29
  L 422.72 330.54
  Q 422.39 331.14 422.55 331.79
  Q 422.52 331.87 422.49 331.96
  Q 421.92 332.58 422.30 333.55
  L 422.21 333.96
  Q 421.81 334.51 422.14 335.06
  L 420.72 346.03
  Q 420.46 346.87 420.55 347.71
  Q 420.57 348.10 420.45 348.46
  Q 419.91 349.02 420.28 350.04
  L 419.19 356.00
  Q 418.78 356.53 419.04 357.22
  L 418.79 358.53
  Q 418.25 359.48 418.64 360.50
  L 416.91 369.02
  L 416.74 369.96
  Q 416.16 370.52 416.49 371.78
  Q 413.79 385.71 410.68 393.69
  C 400.02 421.08 377.98 437.85 348.53 441.07
  Q 347.70 441.06 347.45 441.22
  L 346.96 441.35
  L 346.29 441.39
  L 338.23 442.11
  L 337.27 442.13
  L 332.19 442.34
  L 326.51 442.37
  L 319.74 442.38
  L 315.09 442.31
  L 308.93 442.14
  L 303.76 442.11
  L 302.80 442.02
  Q 306.02 440.11 308.10 440.00
  C 316.90 439.55 321.42 439.56 327.77 438.14
  A 0.09 0.09 0.0 0 0 327.75 437.96
  L 312.65 437.36
  A 0.02 0.01 0.0 0 1 312.63 437.35
  L 312.63 437.34
  Q 327.61 437.54 342.73 435.05
  C 346.25 434.47 349.58 432.99 352.55 432.87
  C 354.41 432.79 356.35 431.71 358.28 431.42
  A 4.67 4.55 28.4 0 0 359.47 431.08
  Q 363.97 429.06 373.27 425.55
  Q 373.82 425.34 377.91 422.72
  Q 379.86 421.47 382.02 419.17
  Q 385.92 415.01 389.25 411.49
  Q 398.40 401.84 403.87 389.50
  Q 408.74 378.41 410.88 369.92
  C 412.50 363.49 414.22 353.41 416.40 345.00
  Q 419.94 331.41 421.77 319.64
  C 422.13 317.32 423.01 314.96 423.75 312.94
  A 0.18 0.18 0.0 0 1 424.10 313.01
  L 423.60 324.54
  Z"
/>
<path fill="#027e45" d="
  M 424.49 316.96
  Q 424.78 318.06 424.25 318.50
  Q 423.91 317.47 424.49 316.96
  Z"
/>
<path fill="#027e45" d="
  M 424.25 318.50
  Q 424.57 319.48 424.05 320.05
  Q 423.72 319.02 424.25 318.50
  Z"
/>
<path fill="#027e45" d="
  M 423.99 321.04
  L 423.84 321.96
  Q 423.75 321.42 423.99 321.04
  Z"
/>
<path fill="#027e45" d="
  M 423.16 326.96
  L 423.11 328.29
  Q 422.80 327.49 423.16 326.96
  Z"
/>
<path fill="#027e45" d="
  M 422.72 330.54
  Q 422.79 331.27 422.55 331.79
  Q 422.39 331.14 422.72 330.54
  Z"
/>
<path fill="#027e45" d="
  M 422.49 331.96
  Q 422.83 332.96 422.30 333.55
  Q 421.92 332.58 422.49 331.96
  Z"
/>
<path fill="#027e45" d="
  M 422.21 333.96
  Q 422.44 334.51 422.14 335.06
  Q 421.81 334.51 422.21 333.96
  Z"
/>
<path fill="#027e45" d="
  M 420.72 346.03
  Q 420.79 346.93 420.55 347.71
  Q 420.46 346.87 420.72 346.03
  Z"
/>
<path fill="#9c32df" d="
  M 288.33 353.83
  Q 284.08 360.49 279.38 364.38
  Q 272.79 369.82 263.09 374.07
  C 259.53 374.47 253.97 374.15 251.27 371.63
  Q 250.23 370.66 249.09 369.97
  A 0.51 0.51 0.0 0 1 249.01 369.16
  Q 252.95 365.54 258.98 361.80
  C 264.47 358.40 265.26 349.80 271.63 348.21
  Q 281.95 345.64 288.33 353.83
  Z"
/>
<path fill="#00bc44" d="
  M 252.55 382.24
  Q 267.44 379.77 277.84 371.54
  Q 285.43 365.54 289.42 361.16
  Q 292.42 357.85 296.90 350.92
  Q 298.12 350.04 299.34 350.15
  A 0.38 0.38 0.0 0 1 299.65 350.70
  C 294.01 361.66 282.96 373.46 272.14 378.78
  C 263.76 382.90 258.81 385.22 249.79 384.21
  A 0.47 0.46 -60.6 0 1 249.56 383.38
  Q 250.61 382.56 252.55 382.24
  Z"
/>
<path fill="#027e45" d="
  M 420.45 348.46
  Q 420.82 349.41 420.28 350.04
  Q 419.91 349.02 420.45 348.46
  Z"
/>
<path fill="#027e45" d="
  M 419.19 356.00
  Q 419.22 356.67 419.04 357.22
  Q 418.78 356.53 419.19 356.00
  Z"
/>
<path fill="#027e45" d="
  M 418.79 358.53
  L 418.64 360.50
  Q 418.25 359.48 418.79 358.53
  Z"
/>
<path fill="#54e770" d="
  M 114.59 365.97
  A 0.35 0.33 -84.3 0 1 114.21 365.48
  Q 114.36 365.16 114.68 365.15
  A 0.38 0.34 14.9 0 1 115.04 365.69
  Q 114.90 365.87 114.59 365.97
  Z"
/>
<path fill="#027e45" d="
  M 416.91 369.02
  Q 416.97 369.55 416.74 369.96
  L 416.91 369.02
  Z"
/>
<path fill="#027e45" d="
  M 416.74 369.96
  Q 416.98 371.02 416.49 371.78
  Q 416.16 370.52 416.74 369.96
  Z"
/>
<path fill="#00ad42" d="
  M 254.22 419.15
  L 268.94 420.33
  Q 240.39 423.12 219.63 422.10
  Q 198.99 421.09 164.78 418.43
  C 140.46 416.54 108.36 412.23 94.45 388.94
  Q 91.68 384.30 92.39 378.71
  A 0.26 0.26 0.0 0 1 92.85 378.58
  C 103.19 391.40 117.78 399.04 133.60 403.60
  C 142.45 406.16 156.00 408.54 168.01 410.00
  Q 176.25 411.01 213.71 415.83
  Q 227.92 417.66 254.22 419.15
  Z"
/>
<path fill="#03da69" d="
  M 385.59 392.69
  Q 382.65 399.55 378.03 405.31
  A 9.18 8.92 -89.0 0 1 376.62 406.71
  Q 371.15 411.02 369.02 412.53
  Q 361.21 418.07 351.32 419.98
  Q 345.80 421.05 340.28 421.94
  L 332.13 421.92
  L 349.12 415.91
  A 20.08 20.02 19.0 0 0 353.14 413.96
  Q 355.76 412.31 360.54 408.79
  Q 362.80 407.12 369.18 404.80
  A 1.15 1.14 -48.4 0 1 369.81 404.76
  L 372.92 405.47
  A 2.36 2.35 22.5 0 0 375.45 404.43
  Q 379.52 397.97 385.59 392.69
  Z"
/>
<path fill="#00a342" d="
  M 176.54 432.16
  Q 175.90 432.27 175.47 432.03
  Q 176.06 431.98 176.54 432.16
  Z"
/>
<path fill="#027e45" d="
  M 178.96 432.41
  Q 178.45 432.43 178.03 432.29
  Q 178.55 432.15 178.96 432.41
  Z"
/>
<path fill="#027e45" d="
  M 187.54 433.43
  Q 186.76 433.58 186.04 433.28
  Q 187.02 433.04 187.54 433.43
  Z"
/>
<path fill="#027e45" d="
  M 189.04 433.63
  Q 188.50 433.69 188.04 433.53
  Q 188.50 433.26 189.04 433.63
  Z"
/>
<path fill="#00a342" d="
  M 195.54 434.20
  L 193.71 434.11
  Q 194.76 433.91 195.54 434.20
  Z"
/>
<path fill="#027e45" d="
  M 207.04 435.41
  Q 206.22 435.54 205.54 435.26
  L 207.04 435.41
  Z"
/>
<path fill="#00a342" d="
  M 208.96 435.67
  L 208.04 435.61
  L 208.96 435.67
  Z"
/>
<path fill="#00a342" d="
  M 215.06 436.10
  L 213.71 436.13
  L 215.06 436.10
  Z"
/>
<path fill="#00a342" d="
  M 227.04 437.19
  L 225.96 437.09
  Q 226.58 436.95 227.04 437.19
  Z"
/>
<path fill="#00a342" d="
  M 258.00 439.65
  Q 257.49 439.69 257.04 439.57
  L 258.00 439.65
  Z"
/>
<path fill="#027e45" d="
  M 266.96 440.14
  L 264.72 440.08
  L 266.96 440.14
  Z"
/>
<path fill="#00a342" d="
  M 273.04 440.64
  Q 272.50 440.68 272.04 440.54
  Q 272.62 440.31 273.04 440.64
  Z"
/>
<path fill="#027e45" d="
  M 283.04 441.17
  L 281.21 441.11
  Q 282.21 440.90 283.04 441.17
  Z"
/>
<path fill="#027e45" d="
  M 348.53 441.07
  Q 348.03 441.24 347.45 441.22
  Q 347.70 441.06 348.53 441.07
  Z"
/>
<path fill="#027e45" d="
  M 287.01 441.42
  L 285.52 441.31
  Q 286.31 441.20 287.01 441.42
  Z"
/>
<path fill="#027e45" d="
  M 346.96 441.35
  L 346.29 441.39
  L 346.96 441.35
  Z"
/>
<path fill="#027e45" d="
  M 308.93 442.14
  L 303.76 442.11
  L 308.93 442.14
  Z"
/>
<path fill="#0cdc44" d="
  M 338.23 442.11
  L 337.27 442.13
  L 338.23 442.11
  Z"
/>
<path fill="#00b446" d="
  M 319.74 442.38
  L 315.09 442.31
  L 319.74 442.38
  Z"
/>
<path fill="#0cdc44" d="
  M 332.19 442.34
  L 326.51 442.37
  L 332.19 442.34
  Z"
/>
</svg>
