<svg xmlns="http://www.w3.org/2000/svg" xmlns:xlink="http://www.w3.org/1999/xlink" width="500" zoomAndPan="magnify" viewBox="0 0 375 187.499995" height="250" preserveAspectRatio="xMidYMid meet" version="1.0"><defs><g/></defs><g fill="#142b57" fill-opacity="1"><g transform="translate(40.142955, 127.160895)"><g><path d="M 5.484375 0 L 5.484375 -74.109375 L 38 -74.109375 C 40.519531 -74.109375 43.109375 -73.820312 45.765625 -73.25 C 48.429688 -72.6875 50.878906 -71.523438 53.109375 -69.765625 C 55.335938 -68.003906 57.128906 -65.34375 58.484375 -61.78125 C 59.847656 -58.226562 60.53125 -53.492188 60.53125 -47.578125 C 60.53125 -41.585938 59.863281 -36.78125 58.53125 -33.15625 C 57.207031 -29.53125 55.484375 -26.800781 53.359375 -24.96875 C 51.234375 -23.144531 48.921875 -21.914062 46.421875 -21.28125 C 43.929688 -20.65625 41.488281 -20.34375 39.09375 -20.34375 C 37.832031 -20.34375 36.519531 -20.410156 35.15625 -20.546875 C 33.789062 -20.679688 32.457031 -20.863281 31.15625 -21.09375 C 29.863281 -21.320312 28.671875 -21.550781 27.578125 -21.78125 C 26.484375 -22.019531 25.566406 -22.207031 24.828125 -22.34375 L 24.828125 0 Z M 24.828125 -37.703125 L 36 -37.703125 C 37.332031 -37.703125 38.378906 -38.066406 39.140625 -38.796875 C 39.910156 -39.523438 40.441406 -40.601562 40.734375 -42.03125 C 41.035156 -43.46875 41.1875 -45.25 41.1875 -47.375 C 41.1875 -49.4375 41.003906 -51.164062 40.640625 -52.5625 C 40.273438 -53.957031 39.726562 -55.003906 39 -55.703125 C 38.269531 -56.398438 37.269531 -56.75 36 -56.75 L 24.828125 -56.75 Z M 24.828125 -37.703125 "/></g></g></g><g fill="#142b57" fill-opacity="1"><g transform="translate(103.272164, 127.160895)"><g><path d="M 0.5 0 L 22.4375 -74.109375 L 46.578125 -74.109375 L 68.515625 0 L 48.46875 0 L 45.484375 -11.765625 L 23.234375 -11.765625 L 20.34375 0 Z M 27.71875 -29.125 L 40.984375 -29.125 L 34.3125 -57.640625 Z M 27.71875 -29.125 "/></g></g></g><g fill="#142b57" fill-opacity="1"><g transform="translate(172.285454, 127.160895)"><g><path d="M 21.9375 0 L 21.9375 -21.046875 L 0.5 -74.109375 L 20.546875 -74.109375 L 32.015625 -40.796875 L 43.484375 -74.109375 L 62.734375 -74.109375 L 41.296875 -21.046875 L 41.296875 0 Z M 21.9375 0 "/></g></g></g><g fill="#142b57" fill-opacity="1"><g transform="translate(235.514406, 127.160895)"><g><path d="M 0.5 0 L 22.4375 -74.109375 L 46.578125 -74.109375 L 68.515625 0 L 48.46875 0 L 45.484375 -11.765625 L 23.234375 -11.765625 L 20.34375 0 Z M 27.71875 -29.125 L 40.984375 -29.125 L 34.3125 -57.640625 Z M 27.71875 -29.125 "/></g></g></g><g fill="#142b57" fill-opacity="1"><g transform="translate(304.527708, 127.160895)"><g><path d="M 5.484375 0 L 5.484375 -74.109375 L 24.828125 -74.109375 L 24.828125 0 Z M 5.484375 0 "/></g></g></g></svg>